<?xml version="1.0" encoding="utf-8"?>
<!-- Generator: Adobe Illustrator 27.8.1, SVG Export Plug-In . SVG Version: 6.00 Build 0)  -->
<svg version="1.1" id="Layer_1" xmlns:svg="http://www.w3.org/2000/svg"
	 xmlns="http://www.w3.org/2000/svg" xmlns:xlink="http://www.w3.org/1999/xlink" x="0px" y="0px" viewBox="0 0 300 150"
	 style="enable-background:new 0 0 300 150;" xml:space="preserve">
<style type="text/css">
	.st0{fill:#E85757;}
	.st1{fill:#3C9CEF;}
	.st2{fill:#95A1AD;}
</style>
<g id="R_x28_222_x29_">
	<path class="st0" d="M155.6,18.1c0,0.9-0.7,1.6-1.6,1.6c-0.9,0-1.6-0.7-1.6-1.6s0.7-1.6,1.6-1.6C154.9,16.5,155.6,17.2,155.6,18.1z
		"/>
	<path class="st0" d="M155.6,18.1c0,0.9-0.7,1.6-1.6,1.6c-0.9,0-1.6-0.7-1.6-1.6s0.7-1.6,1.6-1.6C154.9,16.5,155.6,17.2,155.6,18.1z
		"/>
	<path class="st0" d="M155.6,2.4c0,0.9-0.7,1.6-1.6,1.6c-0.9,0-1.6-0.7-1.6-1.6s0.7-1.6,1.6-1.6C154.9,0.8,155.6,1.5,155.6,2.4z"/>
	<path class="st0" d="M155.9,42c0,0.9-0.7,1.6-1.6,1.6c-0.9,0-1.6-0.7-1.6-1.6c0-0.9,0.7-1.6,1.6-1.6S155.9,41.1,155.9,42z"/>
	<path class="st0" d="M155.6,33.7c0,0.9-0.7,1.6-1.6,1.6c-0.9,0-1.6-0.7-1.6-1.6s0.7-1.6,1.6-1.6C154.9,32.1,155.6,32.9,155.6,33.7z
		"/>
	<path class="st0" d="M155.9,57.9c0,0.9-0.7,1.6-1.6,1.6c-0.9,0-1.6-0.7-1.6-1.6c0-0.9,0.7-1.6,1.6-1.6
		C155.2,56.3,155.9,57,155.9,57.9z"/>
	<path class="st0" d="M160.3,10.5c0,0.9-0.7,1.6-1.6,1.6s-1.6-0.7-1.6-1.6c0-0.9,0.7-1.6,1.6-1.6S160.3,9.6,160.3,10.5z"/>
	<path class="st0" d="M160.3,26.4c0,0.9-0.7,1.6-1.6,1.6s-1.6-0.7-1.6-1.6s0.7-1.6,1.6-1.6S160.3,25.5,160.3,26.4z"/>
	<path class="st0" d="M160.2,50.2c0,0.9-0.7,1.6-1.6,1.6c-0.9,0-1.6-0.7-1.6-1.6c0-0.9,0.7-1.6,1.6-1.6
		C159.5,48.6,160.2,49.3,160.2,50.2z"/>
	<path class="st0" d="M164.6,2.9c0,0.9-0.7,1.6-1.6,1.6c-0.9,0-1.6-0.7-1.6-1.6s0.7-1.6,1.6-1.6C163.9,1.3,164.6,2,164.6,2.9z"/>
	<path class="st0" d="M164.7,18.8c0,0.9-0.7,1.6-1.6,1.6s-1.6-0.7-1.6-1.6s0.7-1.6,1.6-1.6S164.7,17.9,164.7,18.8z"/>
	<path class="st0" d="M164.7,34.7c0,0.9-0.7,1.6-1.6,1.6c-0.9,0-1.6-0.7-1.6-1.6c0-0.9,0.7-1.6,1.6-1.6
		C164,33.2,164.7,33.9,164.7,34.7z"/>
	<path class="st0" d="M164.5,42.7c0,0.9-0.7,1.6-1.6,1.6c-0.9,0-1.6-0.7-1.6-1.6s0.7-1.6,1.6-1.6C163.8,41.1,164.5,41.8,164.5,42.7z
		"/>
	<path class="st0" d="M169,11.3c0,0.9-0.7,1.6-1.6,1.6c-0.9,0-1.6-0.7-1.6-1.6s0.7-1.6,1.6-1.6C168.2,9.7,169,10.4,169,11.3z"/>
	<path class="st0" d="M164.5,58.7c0,0.9-0.7,1.6-1.6,1.6c-0.9,0-1.6-0.7-1.6-1.6s0.7-1.6,1.6-1.6C163.8,57.1,164.5,57.8,164.5,58.7z
		"/>
	<path class="st0" d="M169,27.3c0,0.9-0.7,1.6-1.6,1.6c-0.9,0-1.6-0.7-1.6-1.6s0.7-1.6,1.6-1.6C168.3,25.7,169,26.4,169,27.3z"/>
	<path class="st0" d="M173.2,3.9c0,0.9-0.7,1.6-1.6,1.6c-0.9,0-1.6-0.7-1.6-1.6s0.7-1.6,1.6-1.6C172.5,2.3,173.2,3,173.2,3.9z"/>
	<path class="st0" d="M173.3,20c0,0.9-0.7,1.6-1.6,1.6c-0.9,0-1.6-0.7-1.6-1.6s0.7-1.6,1.6-1.6S173.3,19.1,173.3,20z"/>
	<path class="st0" d="M164.6,74.7c0,0.9-0.7,1.6-1.6,1.6s-1.6-0.7-1.6-1.6s0.7-1.6,1.6-1.6S164.6,73.8,164.6,74.7z"/>
	<path class="st0" d="M168.8,51.3c0,0.9-0.7,1.6-1.6,1.6c-0.9,0-1.6-0.7-1.6-1.6c0-0.9,0.7-1.6,1.6-1.6S168.8,50.4,168.8,51.3z"/>
	<path class="st0" d="M173.4,36.1c0,0.9-0.7,1.6-1.6,1.6s-1.6-0.7-1.6-1.6c0-0.9,0.7-1.6,1.6-1.6S173.4,35.2,173.4,36.1z"/>
	<path class="st0" d="M173,44c0,0.9-0.7,1.6-1.6,1.6c-0.9,0-1.6-0.7-1.6-1.6c0-0.9,0.7-1.6,1.6-1.6S173,43.2,173,44z"/>
	<path class="st0" d="M168.9,67.4c0,0.9-0.7,1.6-1.6,1.6c-0.9,0-1.6-0.7-1.6-1.6s0.7-1.6,1.6-1.6C168.2,65.9,168.9,66.6,168.9,67.4z
		"/>
	<path class="st0" d="M173.1,60.3c0,0.9-0.7,1.6-1.6,1.6c-0.9,0-1.6-0.7-1.6-1.6s0.7-1.6,1.6-1.6C172.3,58.7,173.1,59.4,173.1,60.3z
		"/>
	<path class="st0" d="M169,83.7c0,0.9-0.7,1.6-1.6,1.6c-0.9,0-1.6-0.7-1.6-1.6s0.7-1.6,1.6-1.6S169,82.8,169,83.7z"/>
	<path class="st0" d="M173.2,76.7c0,0.9-0.7,1.6-1.6,1.6c-0.9,0-1.6-0.7-1.6-1.6s0.7-1.6,1.6-1.6S173.2,75.8,173.2,76.7z"/>
	<path class="st0" d="M177.5,12.7c0,0.9-0.7,1.6-1.6,1.6c-0.9,0-1.6-0.7-1.6-1.6c0-0.9,0.7-1.6,1.6-1.6
		C176.8,11.1,177.5,11.8,177.5,12.7z"/>
	<path class="st0" d="M181.8,5.4c0,0.9-0.7,1.6-1.6,1.6c-0.9,0-1.6-0.7-1.6-1.6s0.7-1.6,1.6-1.6C181,3.8,181.8,4.5,181.8,5.4z"/>
	<path class="st0" d="M177.7,28.8c0,0.9-0.7,1.6-1.6,1.6s-1.6-0.7-1.6-1.6s0.7-1.6,1.6-1.6S177.7,28,177.7,28.8z"/>
	<path class="st0" d="M181.9,21.7c0,0.9-0.7,1.6-1.6,1.6s-1.6-0.7-1.6-1.6s0.7-1.6,1.6-1.6S181.9,20.8,181.9,21.7z"/>
	<path class="st0" d="M186,14.5c0,0.9-0.7,1.6-1.6,1.6c-0.9,0-1.6-0.7-1.6-1.6c0-0.9,0.7-1.6,1.6-1.6S186,13.7,186,14.5z"/>
	<path class="st0" d="M177.2,53.1c0,0.9-0.7,1.6-1.6,1.6c-0.9,0-1.6-0.7-1.6-1.6s0.7-1.6,1.6-1.6C176.5,51.6,177.2,52.3,177.2,53.1z
		"/>
	<path class="st0" d="M190.2,7.4c0,0.9-0.7,1.6-1.6,1.6c-0.9,0-1.6-0.7-1.6-1.6s0.7-1.6,1.6-1.6C189.5,5.9,190.2,6.6,190.2,7.4z"/>
	<path class="st0" d="M182,38c0,0.9-0.7,1.6-1.6,1.6c-0.9,0-1.6-0.7-1.6-1.6c0-0.9,0.7-1.6,1.6-1.6S182,37.2,182,38z"/>
	<path class="st0" d="M181.3,46.1c0,0.9-0.7,1.6-1.6,1.6c-0.9,0-1.6-0.7-1.6-1.6c0-0.9,0.7-1.6,1.6-1.6S181.3,45.2,181.3,46.1z"/>
	<path class="st0" d="M186.2,31c0,0.9-0.7,1.6-1.6,1.6c-0.9,0-1.6-0.7-1.6-1.6s0.7-1.6,1.6-1.6C185.4,29.4,186.2,30.1,186.2,31z"/>
	<path class="st0" d="M190.3,23.9c0,0.9-0.7,1.6-1.6,1.6c-0.9,0-1.6-0.7-1.6-1.6s0.7-1.6,1.6-1.6C189.6,22.4,190.3,23.1,190.3,23.9z
		"/>
	<path class="st0" d="M177.3,69.6c0,0.9-0.7,1.6-1.6,1.6c-0.9,0-1.6-0.7-1.6-1.6s0.7-1.6,1.6-1.6S177.3,68.8,177.3,69.6z"/>
	<path class="st0" d="M181.4,62.7c0,0.9-0.7,1.6-1.6,1.6c-0.9,0-1.6-0.7-1.6-1.6c0-0.9,0.7-1.6,1.6-1.6
		C180.7,61.1,181.4,61.8,181.4,62.7z"/>
	<path class="st0" d="M190.4,40.6c0,0.9-0.7,1.6-1.6,1.6s-1.6-0.7-1.6-1.6c0-0.9,0.7-1.6,1.6-1.6S190.4,39.8,190.4,40.6z"/>
	<path class="st0" d="M185.4,55.7c0,0.9-0.7,1.6-1.6,1.6c-0.9,0-1.6-0.7-1.6-1.6s0.7-1.6,1.6-1.6C184.7,54.1,185.4,54.8,185.4,55.7z
		"/>
	<path class="st0" d="M189.5,48.7c0,0.9-0.7,1.6-1.6,1.6c-0.9,0-1.6-0.7-1.6-1.6c0-0.9,0.7-1.6,1.6-1.6
		C188.8,47.1,189.5,47.9,189.5,48.7z"/>
	<path class="st0" d="M177.4,86.5c0,0.9-0.7,1.6-1.6,1.6c-0.9,0-1.6-0.7-1.6-1.6s0.7-1.6,1.6-1.6S177.4,85.6,177.4,86.5z"/>
	<path class="st0" d="M181.4,79.6c0,0.9-0.7,1.6-1.6,1.6s-1.6-0.7-1.6-1.6s0.7-1.6,1.6-1.6S181.4,78.7,181.4,79.6z"/>
	<path class="st0" d="M185.4,72.7c0,0.9-0.7,1.6-1.6,1.6c-0.9,0-1.6-0.7-1.6-1.6s0.7-1.6,1.6-1.6S185.4,71.8,185.4,72.7z"/>
	<path class="st0" d="M189.4,65.8c0,0.9-0.7,1.6-1.6,1.6c-0.9,0-1.6-0.7-1.6-1.6s0.7-1.6,1.6-1.6C188.7,64.2,189.4,64.9,189.4,65.8z
		"/>
	<path class="st0" d="M185.3,90.3c0,0.9-0.7,1.6-1.6,1.6c-0.9,0-1.6-0.7-1.6-1.6s0.7-1.6,1.6-1.6C184.6,88.7,185.3,89.4,185.3,90.3z
		"/>
	<path class="st0" d="M189.3,83.4c0,0.9-0.7,1.6-1.6,1.6c-0.9,0-1.6-0.7-1.6-1.6s0.7-1.6,1.6-1.6C188.5,81.8,189.3,82.5,189.3,83.4z
		"/>
	<path class="st0" d="M194.4,16.9c0,0.9-0.7,1.6-1.6,1.6c-0.9,0-1.6-0.7-1.6-1.6s0.7-1.6,1.6-1.6C193.7,15.3,194.4,16.1,194.4,16.9z
		"/>
	<path class="st0" d="M198.5,9.9c0,0.9-0.7,1.6-1.6,1.6c-0.9,0-1.6-0.7-1.6-1.6c0-0.9,0.7-1.6,1.6-1.6
		C197.8,8.4,198.5,9.1,198.5,9.9z"/>
	<path class="st0" d="M194.5,33.7c0,0.9-0.7,1.6-1.6,1.6s-1.6-0.7-1.6-1.6s0.7-1.6,1.6-1.6S194.5,32.8,194.5,33.7z"/>
	<path class="st0" d="M198.6,26.8c0,0.9-0.7,1.6-1.6,1.6c-0.9,0-1.6-0.7-1.6-1.6s0.7-1.6,1.6-1.6C197.8,25.2,198.6,25.9,198.6,26.8z
		"/>
	<path class="st0" d="M202.6,19.8c0,0.9-0.7,1.6-1.6,1.6c-0.9,0-1.6-0.7-1.6-1.6s0.7-1.6,1.6-1.6C201.9,18.3,202.6,19,202.6,19.8z"
		/>
	<path class="st0" d="M206.7,12.9c0,0.9-0.7,1.6-1.6,1.6s-1.6-0.7-1.6-1.6c0-0.9,0.7-1.6,1.6-1.6S206.7,12,206.7,12.9z"/>
	<path class="st0" d="M198.6,43.9c0,0.9-0.7,1.6-1.6,1.6c-0.9,0-1.6-0.7-1.6-1.6c0-0.9,0.7-1.6,1.6-1.6
		C197.9,42.3,198.6,43,198.6,43.9z"/>
	<path class="st0" d="M202.6,37c0,0.9-0.7,1.6-1.6,1.6c-0.9,0-1.6-0.7-1.6-1.6c0-0.9,0.7-1.6,1.6-1.6
		C201.9,35.4,202.6,36.1,202.6,37z"/>
	<path class="st0" d="M193.4,58.9c0,0.9-0.7,1.6-1.6,1.6c-0.9,0-1.6-0.7-1.6-1.6s0.7-1.6,1.6-1.6C192.7,57.3,193.4,58,193.4,58.9z"
		/>
	<path class="st0" d="M206.6,30.1c0,0.9-0.7,1.6-1.6,1.6c-0.9,0-1.6-0.7-1.6-1.6s0.7-1.6,1.6-1.6C205.9,28.5,206.6,29.2,206.6,30.1z
		"/>
	<path class="st0" d="M197.4,52c0,0.9-0.7,1.6-1.6,1.6s-1.6-0.7-1.6-1.6s0.7-1.6,1.6-1.6S197.4,51.2,197.4,52z"/>
	<path class="st0" d="M206.5,47.7c0,0.9-0.7,1.6-1.6,1.6c-0.9,0-1.6-0.7-1.6-1.6s0.7-1.6,1.6-1.6C205.8,46.1,206.5,46.8,206.5,47.7z
		"/>
	<path class="st0" d="M193.2,76.5c0,0.9-0.7,1.6-1.6,1.6c-0.9,0-1.6-0.7-1.6-1.6s0.7-1.6,1.6-1.6C192.5,75,193.2,75.7,193.2,76.5z"
		/>
	<path class="st0" d="M197.2,69.7c0,0.9-0.7,1.6-1.6,1.6c-0.9,0-1.6-0.7-1.6-1.6s0.7-1.6,1.6-1.6S197.2,68.8,197.2,69.7z"/>
	<path class="st0" d="M201.1,62.8c0,0.9-0.7,1.6-1.6,1.6s-1.6-0.7-1.6-1.6s0.7-1.6,1.6-1.6S201.1,62,201.1,62.8z"/>
	<path class="st0" d="M205.1,56c0,0.9-0.7,1.6-1.6,1.6s-1.6-0.7-1.6-1.6s0.7-1.6,1.6-1.6S205.1,55.1,205.1,56z"/>
	<path class="st0" d="M208.5,67.4c0,0.9-0.7,1.6-1.6,1.6c-0.9,0-1.6-0.7-1.6-1.6s0.7-1.6,1.6-1.6S208.5,66.5,208.5,67.4z"/>
	<path class="st0" d="M204.5,74.3c0,0.9-0.7,1.6-1.6,1.6s-1.6-0.7-1.6-1.6s0.7-1.6,1.6-1.6S204.5,73.4,204.5,74.3z"/>
	<path class="st0" d="M200.6,81.2c0,0.9-0.7,1.6-1.6,1.6c-0.9,0-1.6-0.7-1.6-1.6s0.7-1.6,1.6-1.6C199.9,79.6,200.6,80.3,200.6,81.2z
		"/>
	<path class="st0" d="M196.6,88.1c0,0.9-0.7,1.6-1.6,1.6c-0.9,0-1.6-0.7-1.6-1.6s0.7-1.6,1.6-1.6C195.9,86.5,196.6,87.2,196.6,88.1z
		"/>
	<path class="st0" d="M192.7,95c0,0.9-0.7,1.6-1.6,1.6c-0.9,0-1.6-0.7-1.6-1.6s0.7-1.6,1.6-1.6S192.7,94.1,192.7,95z"/>
	<path class="st0" d="M207.4,86.5c0,0.9-0.7,1.6-1.6,1.6c-0.9,0-1.6-0.7-1.6-1.6s0.7-1.6,1.6-1.6C206.7,85,207.4,85.7,207.4,86.5z"
		/>
	<path class="st0" d="M203.4,93.6c0,0.9-0.7,1.6-1.6,1.6c-0.9,0-1.6-0.7-1.6-1.6s0.7-1.6,1.6-1.6S203.4,92.7,203.4,93.6z"/>
	<path class="st0" d="M199.4,100.7c0,0.9-0.7,1.6-1.6,1.6c-0.9,0-1.6-0.7-1.6-1.6s0.7-1.6,1.6-1.6S199.4,99.8,199.4,100.7z"/>
	<path class="st0" d="M237.1,29.4c0,0.9-0.7,1.6-1.6,1.6s-1.6-0.7-1.6-1.6s0.7-1.6,1.6-1.6S237.1,28.6,237.1,29.4z"/>
	<path class="st0" d="M233.2,36.3c0,0.9-0.7,1.6-1.6,1.6c-0.9,0-1.6-0.7-1.6-1.6c0-0.9,0.7-1.6,1.6-1.6
		C232.5,34.8,233.2,35.5,233.2,36.3z"/>
	<path class="st0" d="M244,34.6c0,0.9-0.7,1.6-1.6,1.6c-0.9,0-1.6-0.7-1.6-1.6c0-0.9,0.7-1.6,1.6-1.6C243.3,33.1,244,33.8,244,34.6z
		"/>
	<path class="st0" d="M240.1,41.6c0,0.9-0.7,1.6-1.6,1.6c-0.9,0-1.6-0.7-1.6-1.6s0.7-1.6,1.6-1.6C239.4,40,240.1,40.7,240.1,41.6z"
		/>
	<path class="st0" d="M236.1,48.6c0,0.9-0.7,1.6-1.6,1.6c-0.9,0-1.6-0.7-1.6-1.6c0-0.9,0.7-1.6,1.6-1.6
		C235.4,47,236.1,47.7,236.1,48.6z"/>
	<path class="st0" d="M232.1,55.6c0,0.9-0.7,1.6-1.6,1.6c-0.9,0-1.6-0.7-1.6-1.6c0-0.9,0.7-1.6,1.6-1.6
		C231.4,54,232.1,54.7,232.1,55.6z"/>
	<path class="st0" d="M250.7,40.2c0,0.9-0.7,1.6-1.6,1.6c-0.9,0-1.6-0.7-1.6-1.6c0-0.9,0.7-1.6,1.6-1.6
		C250,38.7,250.7,39.4,250.7,40.2z"/>
	<path class="st0" d="M246.7,47.3c0,0.9-0.7,1.6-1.6,1.6c-0.9,0-1.6-0.7-1.6-1.6s0.7-1.6,1.6-1.6S246.7,46.4,246.7,47.3z"/>
	<path class="st0" d="M242.7,54.4c0,0.9-0.7,1.6-1.6,1.6c-0.9,0-1.6-0.7-1.6-1.6c0-0.9,0.7-1.6,1.6-1.6
		C241.9,52.8,242.7,53.5,242.7,54.4z"/>
	<path class="st0" d="M238.6,61.5c0,0.9-0.7,1.6-1.6,1.6s-1.6-0.7-1.6-1.6s0.7-1.6,1.6-1.6S238.6,60.6,238.6,61.5z"/>
	<path class="st0" d="M257,46.2c0,0.9-0.7,1.6-1.6,1.6s-1.6-0.7-1.6-1.6c0-0.9,0.7-1.6,1.6-1.6C256.3,44.6,257,45.3,257,46.2z"/>
	<path class="st0" d="M234.6,68.6c0,0.9-0.7,1.6-1.6,1.6c-0.9,0-1.6-0.7-1.6-1.6s0.7-1.6,1.6-1.6C233.9,67,234.6,67.8,234.6,68.6z"
		/>
	<path class="st0" d="M252.9,53.4c0,0.9-0.7,1.6-1.6,1.6c-0.9,0-1.6-0.7-1.6-1.6c0-0.9,0.7-1.6,1.6-1.6
		C252.2,51.8,252.9,52.5,252.9,53.4z"/>
	<path class="st0" d="M248.8,60.6c0,0.9-0.7,1.6-1.6,1.6c-0.9,0-1.6-0.7-1.6-1.6s0.7-1.6,1.6-1.6S248.8,59.7,248.8,60.6z"/>
	<path class="st0" d="M244.7,67.8c0,0.9-0.7,1.6-1.6,1.6c-0.9,0-1.6-0.7-1.6-1.6s0.7-1.6,1.6-1.6C244,66.2,244.7,66.9,244.7,67.8z"
		/>
	<path class="st0" d="M262.9,52.6c0,0.9-0.7,1.6-1.6,1.6s-1.6-0.7-1.6-1.6c0-0.9,0.7-1.6,1.6-1.6S262.9,51.7,262.9,52.6z"/>
	<path class="st0" d="M240.5,75.1c0,0.9-0.7,1.6-1.6,1.6c-0.9,0-1.6-0.7-1.6-1.6s0.7-1.6,1.6-1.6S240.5,74.2,240.5,75.1z"/>
	<path class="st0" d="M258.7,59.8c0,0.9-0.7,1.6-1.6,1.6s-1.6-0.7-1.6-1.6s0.7-1.6,1.6-1.6S258.7,59,258.7,59.8z"/>
	<path class="st0" d="M254.5,67.2c0,0.9-0.7,1.6-1.6,1.6c-0.9,0-1.6-0.7-1.6-1.6s0.7-1.6,1.6-1.6S254.5,66.3,254.5,67.2z"/>
	<path class="st0" d="M268.4,59.2c0,0.9-0.7,1.6-1.6,1.6s-1.6-0.7-1.6-1.6s0.7-1.6,1.6-1.6C267.7,57.7,268.4,58.4,268.4,59.2z"/>
	<path class="st0" d="M237.5,83.9c0,0.9-0.7,1.6-1.6,1.6c-0.9,0-1.6-0.7-1.6-1.6s0.7-1.6,1.6-1.6S237.5,83,237.5,83.9z"/>
	<path class="st0" d="M250.3,74.6c0,0.9-0.7,1.6-1.6,1.6c-0.9,0-1.6-0.7-1.6-1.6s0.7-1.6,1.6-1.6S250.3,73.7,250.3,74.6z"/>
	<path class="st0" d="M264.1,66.6c0,0.9-0.7,1.6-1.6,1.6s-1.6-0.7-1.6-1.6s0.7-1.6,1.6-1.6C263.4,65.1,264.1,65.8,264.1,66.6z"/>
	<path class="st0" d="M246,82c0,0.9-0.7,1.6-1.6,1.6c-0.9,0-1.6-0.7-1.6-1.6s0.7-1.6,1.6-1.6S246,81.1,246,82z"/>
	<path class="st0" d="M259.8,74.1c0,0.9-0.7,1.6-1.6,1.6s-1.6-0.7-1.6-1.6s0.7-1.6,1.6-1.6C259.1,72.5,259.8,73.2,259.8,74.1z"/>
	<path class="st0" d="M273.6,66.2c0,0.9-0.7,1.6-1.6,1.6s-1.6-0.7-1.6-1.6s0.7-1.6,1.6-1.6S273.6,65.3,273.6,66.2z"/>
	<path class="st0" d="M255.4,81.7c0,0.9-0.7,1.6-1.6,1.6c-0.9,0-1.6-0.7-1.6-1.6s0.7-1.6,1.6-1.6S255.4,80.8,255.4,81.7z"/>
	<path class="st0" d="M242.5,90.9c0,0.9-0.7,1.6-1.6,1.6c-0.9,0-1.6-0.7-1.6-1.6s0.7-1.6,1.6-1.6S242.5,90,242.5,90.9z"/>
	<path class="st0" d="M269.1,73.8c0,0.9-0.7,1.6-1.6,1.6s-1.6-0.7-1.6-1.6s0.7-1.6,1.6-1.6C268.4,72.2,269.1,72.9,269.1,73.8z"/>
	<path class="st0" d="M250.9,89.3c0,0.9-0.7,1.6-1.6,1.6c-0.9,0-1.6-0.7-1.6-1.6s0.7-1.6,1.6-1.6C250.2,87.7,250.9,88.4,250.9,89.3z
		"/>
	<path class="st0" d="M264.6,81.4c0,0.9-0.7,1.6-1.6,1.6s-1.6-0.7-1.6-1.6s0.7-1.6,1.6-1.6S264.6,80.5,264.6,81.4z"/>
	<path class="st0" d="M278.3,73.5c0,0.9-0.7,1.6-1.6,1.6s-1.6-0.7-1.6-1.6s0.7-1.6,1.6-1.6C277.6,71.9,278.3,72.6,278.3,73.5z"/>
	<path class="st0" d="M237.9,98.5c0,0.9-0.7,1.6-1.6,1.6c-0.9,0-1.6-0.7-1.6-1.6s0.7-1.6,1.6-1.6S237.9,97.6,237.9,98.5z"/>
	<path class="st0" d="M273.7,81.2c0,0.9-0.7,1.6-1.6,1.6s-1.6-0.7-1.6-1.6s0.7-1.6,1.6-1.6S273.7,80.3,273.7,81.2z"/>
	<path class="st0" d="M260,89.1c0,0.9-0.7,1.6-1.6,1.6s-1.6-0.7-1.6-1.6s0.7-1.6,1.6-1.6S260,88.2,260,89.1z"/>
	<path class="st0" d="M246.9,98.3c0,0.9-0.7,1.6-1.6,1.6c-0.9,0-1.6-0.7-1.6-1.6s0.7-1.6,1.6-1.6C246.2,96.7,246.9,97.4,246.9,98.3z
		"/>
	<path class="st0" d="M282.6,81c0,0.9-0.7,1.6-1.6,1.6s-1.6-0.7-1.6-1.6s0.7-1.6,1.6-1.6S282.6,80.2,282.6,81z"/>
	<path class="st0" d="M268.9,89c0,0.9-0.7,1.6-1.6,1.6s-1.6-0.7-1.6-1.6s0.7-1.6,1.6-1.6C268.2,87.4,268.9,88.1,268.9,89z"/>
	<path class="st0" d="M255.2,97c0,0.9-0.7,1.6-1.6,1.6S252,97.8,252,97c0-0.9,0.7-1.6,1.6-1.6S255.2,96.1,255.2,97z"/>
	<path class="st0" d="M242.1,106.1c0,0.9-0.7,1.6-1.6,1.6c-0.9,0-1.6-0.7-1.6-1.6s0.7-1.6,1.6-1.6
		C241.4,104.5,242.1,105.2,242.1,106.1z"/>
	<path class="st0" d="M277.7,88.9c0,0.9-0.7,1.6-1.6,1.6s-1.6-0.7-1.6-1.6s0.7-1.6,1.6-1.6S277.7,88,277.7,88.9z"/>
	<path class="st0" d="M264,96.9c0,0.9-0.7,1.6-1.6,1.6s-1.6-0.7-1.6-1.6s0.7-1.6,1.6-1.6S264,96,264,96.9z"/>
	<path class="st0" d="M286.5,88.8c0,0.9-0.7,1.6-1.6,1.6s-1.6-0.7-1.6-1.6s0.7-1.6,1.6-1.6C285.8,87.2,286.5,87.9,286.5,88.8z"/>
	<path class="st0" d="M250.8,105.9c0,0.9-0.7,1.6-1.6,1.6c-0.9,0-1.6-0.7-1.6-1.6s0.7-1.6,1.6-1.6
		C250.1,104.4,250.8,105.1,250.8,105.9z"/>
	<path class="st0" d="M272.7,96.8c0,0.9-0.7,1.6-1.6,1.6s-1.6-0.7-1.6-1.6s0.7-1.6,1.6-1.6C272,95.3,272.7,96,272.7,96.8z"/>
	<path class="st0" d="M259,104.9c0,0.9-0.7,1.6-1.6,1.6s-1.6-0.7-1.6-1.6s0.7-1.6,1.6-1.6S259,104,259,104.9z"/>
	<path class="st0" d="M281.3,96.8c0,0.9-0.7,1.6-1.6,1.6s-1.6-0.7-1.6-1.6s0.7-1.6,1.6-1.6C280.6,95.2,281.3,95.9,281.3,96.8z"/>
	<path class="st0" d="M267.5,104.9c0,0.9-0.7,1.6-1.6,1.6s-1.6-0.7-1.6-1.6s0.7-1.6,1.6-1.6S267.5,104,267.5,104.9z"/>
	<path class="st0" d="M289.9,96.8c0,0.9-0.7,1.6-1.6,1.6s-1.6-0.7-1.6-1.6s0.7-1.6,1.6-1.6C289.2,95.2,289.9,95.9,289.9,96.8z"/>
	<path class="st0" d="M276,104.9c0,0.9-0.7,1.6-1.6,1.6s-1.6-0.7-1.6-1.6s0.7-1.6,1.6-1.6S276,104.1,276,104.9z"/>
	<path class="st0" d="M284.4,104.9c0,0.9-0.7,1.6-1.6,1.6s-1.6-0.7-1.6-1.6s0.7-1.6,1.6-1.6C283.7,103.4,284.4,104.1,284.4,104.9z"
		/>
	<path class="st0" d="M292.8,105c0,0.9-0.7,1.6-1.6,1.6s-1.6-0.7-1.6-1.6s0.7-1.6,1.6-1.6C292.1,103.4,292.8,104.1,292.8,105z"/>
	<path class="st0" d="M219.5,146.1c0.9,0.1,1.5,1,1.3,1.8c-0.1,0.9-1,1.5-1.8,1.3c-0.9-0.1-1.5-1-1.3-1.8
		C217.8,146.5,218.6,145.9,219.5,146.1z"/>
	<path class="st0" d="M228.7,147.6c0,0.9-0.7,1.6-1.6,1.6c-0.9,0-1.6-0.7-1.6-1.6c0-0.9,0.7-1.6,1.6-1.6S228.7,146.7,228.7,147.6z"
		/>
	<path class="st0" d="M236.6,147.6c0,0.9-0.7,1.6-1.6,1.6c-0.9,0-1.6-0.7-1.6-1.6c0-0.9,0.7-1.6,1.6-1.6
		C235.9,146,236.6,146.7,236.6,147.6z"/>
	<path class="st0" d="M210.6,23.2c0,0.9-0.7,1.6-1.6,1.6c-0.9,0-1.6-0.7-1.6-1.6s0.7-1.6,1.6-1.6C209.9,21.7,210.6,22.4,210.6,23.2z
		"/>
	<path class="st0" d="M213.3,14.8c0.9,0.1,1.5,1,1.3,1.8c-0.1,0.9-1,1.5-1.8,1.3c-0.9-0.1-1.5-1-1.3-1.8
		C211.6,15.3,212.4,14.7,213.3,14.8z"/>
	<path class="st0" d="M210.5,40.9c0,0.9-0.7,1.6-1.6,1.6c-0.9,0-1.6-0.7-1.6-1.6s0.7-1.6,1.6-1.6C209.7,39.3,210.5,40,210.5,40.9z"
		/>
	<path class="st0" d="M214.4,34c0,0.9-0.7,1.6-1.6,1.6c-0.9,0-1.6-0.7-1.6-1.6c0-0.9,0.7-1.6,1.6-1.6S214.4,33.1,214.4,34z"/>
	<path class="st0" d="M217.1,25.6c0.9,0.1,1.5,1,1.3,1.8c-0.1,0.9-1,1.5-1.8,1.3c-0.9-0.1-1.5-1-1.3-1.8
		C215.4,26,216.2,25.4,217.1,25.6z"/>
	<path class="st0" d="M222.4,20.3c0,0.9-0.7,1.6-1.6,1.6s-1.6-0.7-1.6-1.6s0.7-1.6,1.6-1.6S222.4,19.4,222.4,20.3z"/>
	<path class="st0" d="M229.9,24.6c0,0.9-0.7,1.6-1.6,1.6c-0.9,0-1.6-0.7-1.6-1.6s0.7-1.6,1.6-1.6C229.2,23.1,229.9,23.8,229.9,24.6z
		"/>
	<path class="st0" d="M225.9,31.5c0,0.9-0.7,1.6-1.6,1.6c-0.9,0-1.6-0.7-1.6-1.6s0.7-1.6,1.6-1.6C225.2,29.9,225.9,30.6,225.9,31.5z
		"/>
	<path class="st0" d="M222,38.4c0,0.9-0.7,1.6-1.6,1.6c-0.9,0-1.6-0.7-1.6-1.6s0.7-1.6,1.6-1.6C221.3,36.8,222,37.5,222,38.4z"/>
	<path class="st0" d="M216.7,43.7c0.9,0.1,1.5,1,1.3,1.8c-0.1,0.9-1,1.5-1.8,1.3c-0.9-0.1-1.5-1-1.3-1.8
		C215,44.1,215.8,43.6,216.7,43.7z"/>
	<path class="st0" d="M214.1,52.1c0,0.9-0.7,1.6-1.6,1.6c-0.9,0-1.6-0.7-1.6-1.6s0.7-1.6,1.6-1.6C213.4,50.5,214.1,51.3,214.1,52.1z
		"/>
	<path class="st0" d="M212.4,60.5c0,0.9-0.7,1.6-1.6,1.6c-0.9,0-1.6-0.7-1.6-1.6c0-0.9,0.7-1.6,1.6-1.6S212.4,59.6,212.4,60.5z"/>
	<path class="st0" d="M229.2,43.3c0,0.9-0.7,1.6-1.6,1.6c-0.9,0-1.6-0.7-1.6-1.6s0.7-1.6,1.6-1.6S229.2,42.4,229.2,43.3z"/>
	<path class="st0" d="M225.3,50.2c0,0.9-0.7,1.6-1.6,1.6c-0.9,0-1.6-0.7-1.6-1.6s0.7-1.6,1.6-1.6C224.6,48.6,225.3,49.3,225.3,50.2z
		"/>
	<path class="st0" d="M221.3,57.1c0,0.9-0.7,1.6-1.6,1.6c-0.9,0-1.6-0.7-1.6-1.6s0.7-1.6,1.6-1.6S221.3,56.2,221.3,57.1z"/>
	<path class="st0" d="M218,64c0.9,0.1,1.5,1,1.3,1.8c-0.1,0.9-1,1.5-1.8,1.3c-0.9-0.1-1.5-1-1.3-1.8S217.2,63.9,218,64z"/>
	<path class="st0" d="M215.4,72.6c0,0.9-0.7,1.6-1.6,1.6c-0.9,0-1.6-0.7-1.6-1.6s0.7-1.6,1.6-1.6S215.4,71.7,215.4,72.6z"/>
	<path class="st0" d="M211.4,79.5c0,0.9-0.7,1.6-1.6,1.6c-0.9,0-1.6-0.7-1.6-1.6s0.7-1.6,1.6-1.6C210.7,78,211.4,78.7,211.4,79.5z"
		/>
	<path class="st0" d="M228.2,62.6c0,0.9-0.7,1.6-1.6,1.6c-0.9,0-1.6-0.7-1.6-1.6c0-0.9,0.7-1.6,1.6-1.6S228.2,61.7,228.2,62.6z"/>
	<path class="st0" d="M225.9,71.2c0,0.9-0.7,1.6-1.6,1.6s-1.6-0.7-1.6-1.6s0.7-1.6,1.6-1.6S225.9,70.3,225.9,71.2z"/>
	<path class="st0" d="M221.8,78.3c0,0.9-0.7,1.6-1.6,1.6c-0.9,0-1.6-0.7-1.6-1.6s0.7-1.6,1.6-1.6C221.1,76.7,221.8,77.4,221.8,78.3z
		"/>
	<path class="st0" d="M216.5,83.8c0.9,0.1,1.5,1,1.3,1.8c-0.1,0.9-1,1.5-1.8,1.3c-0.9-0.1-1.5-1-1.3-1.8
		C214.8,84.3,215.6,83.7,216.5,83.8z"/>
	<path class="st0" d="M213.7,92.6c0,0.9-0.7,1.6-1.6,1.6c-0.9,0-1.6-0.7-1.6-1.6s0.7-1.6,1.6-1.6S213.7,91.7,213.7,92.6z"/>
	<path class="st0" d="M231.9,77.3c0,0.9-0.7,1.6-1.6,1.6c-0.9,0-1.6-0.7-1.6-1.6s0.7-1.6,1.6-1.6C231.2,75.7,231.9,76.4,231.9,77.3z
		"/>
	<path class="st0" d="M209.6,99.8c0,0.9-0.7,1.6-1.6,1.6c-0.9,0-1.6-0.7-1.6-1.6s0.7-1.6,1.6-1.6C208.9,98.2,209.6,98.9,209.6,99.8z
		"/>
	<path class="st0" d="M227.8,84.6c0,0.9-0.7,1.6-1.6,1.6s-1.6-0.7-1.6-1.6s0.7-1.6,1.6-1.6S227.8,83.7,227.8,84.6z"/>
	<path class="st0" d="M223.6,91.9c0,0.9-0.7,1.6-1.6,1.6c-0.9,0-1.6-0.7-1.6-1.6s0.7-1.6,1.6-1.6C222.9,90.3,223.6,91,223.6,91.9z"
		/>
	<path class="st0" d="M205.4,107.2c0,0.9-0.7,1.6-1.6,1.6s-1.6-0.7-1.6-1.6s0.7-1.6,1.6-1.6S205.4,106.3,205.4,107.2z"/>
	<path class="st0" d="M218,97.7c0.9,0.1,1.5,1,1.3,1.8c-0.1,0.9-1,1.5-1.8,1.3c-0.9-0.1-1.5-1-1.3-1.8
		C216.3,98.1,217.1,97.5,218,97.7z"/>
	<path class="st0" d="M233.2,91.3c0,0.9-0.7,1.6-1.6,1.6c-0.9,0-1.6-0.7-1.6-1.6s0.7-1.6,1.6-1.6C232.4,89.7,233.2,90.4,233.2,91.3z
		"/>
	<path class="st0" d="M215,106.7c0,0.9-0.7,1.6-1.6,1.6s-1.6-0.7-1.6-1.6s0.7-1.6,1.6-1.6S215,105.8,215,106.7z"/>
	<path class="st0" d="M228.7,98.8c0,0.9-0.7,1.6-1.6,1.6c-0.9,0-1.6-0.7-1.6-1.6s0.7-1.6,1.6-1.6C228,97.2,228.7,97.9,228.7,98.8z"
		/>
	<path class="st0" d="M210.5,114.3c0,0.9-0.7,1.6-1.6,1.6c-0.9,0-1.6-0.7-1.6-1.6s0.7-1.6,1.6-1.6
		C209.8,112.7,210.5,113.5,210.5,114.3z"/>
	<path class="st0" d="M224.2,106.4c0,0.9-0.7,1.6-1.6,1.6c-0.9,0-1.6-0.7-1.6-1.6s0.7-1.6,1.6-1.6S224.2,105.5,224.2,106.4z"/>
	<path class="st0" d="M233.2,106.2c0,0.9-0.7,1.6-1.6,1.6c-0.9,0-1.6-0.7-1.6-1.6s0.7-1.6,1.6-1.6S233.2,105.3,233.2,106.2z"/>
	<path class="st0" d="M218.2,112.6c0.9,0.1,1.5,1,1.3,1.8c-0.1,0.9-1,1.5-1.8,1.3c-0.9-0.1-1.5-1-1.3-1.8
		C216.5,113,217.4,112.5,218.2,112.6z"/>
	<path class="st0" d="M228.4,114c0,0.9-0.7,1.6-1.6,1.6c-0.9,0-1.6-0.7-1.6-1.6s0.7-1.6,1.6-1.6C227.7,112.5,228.4,113.2,228.4,114z
		"/>
	<path class="st0" d="M213.3,120.5c0.9,0.1,1.5,1,1.3,1.8c-0.1,0.9-1,1.5-1.8,1.3c-0.9-0.1-1.5-1-1.3-1.8
		C211.6,121,212.5,120.4,213.3,120.5z"/>
	<path class="st0" d="M223.2,122.1c0,0.9-0.7,1.6-1.6,1.6c-0.9,0-1.6-0.7-1.6-1.6s0.7-1.6,1.6-1.6S223.2,121.2,223.2,122.1z"/>
	<path class="st0" d="M231.7,122.1c0,0.9-0.7,1.6-1.6,1.6s-1.6-0.7-1.6-1.6s0.7-1.6,1.6-1.6S231.7,121.2,231.7,122.1z"/>
	<path class="st0" d="M216.4,128.8c0.9,0.1,1.5,1,1.3,1.8c-0.1,0.9-1,1.5-1.8,1.3c-0.9-0.1-1.5-1-1.3-1.8
		C214.8,129.2,215.6,128.6,216.4,128.8z"/>
	<path class="st0" d="M226,130.4c0,0.9-0.7,1.6-1.6,1.6c-0.9,0-1.6-0.7-1.6-1.6c0-0.9,0.7-1.6,1.6-1.6
		C225.3,128.8,226,129.5,226,130.4z"/>
	<path class="st0" d="M234.2,130.4c0,0.9-0.7,1.6-1.6,1.6c-0.9,0-1.6-0.7-1.6-1.6c0-0.9,0.7-1.6,1.6-1.6
		C233.5,128.8,234.2,129.5,234.2,130.4z"/>
	<path class="st0" d="M218.5,137.3c0.9,0.1,1.5,1,1.3,1.8c-0.1,0.9-1,1.5-1.8,1.3c-0.9-0.1-1.5-1-1.3-1.8
		C216.8,137.7,217.6,137.2,218.5,137.3z"/>
	<path class="st0" d="M227.9,138.9c0,0.9-0.7,1.6-1.6,1.6c-0.9,0-1.6-0.7-1.6-1.6c0-0.9,0.7-1.6,1.6-1.6
		C227.1,137.3,227.9,138,227.9,138.9z"/>
	<path class="st0" d="M235.9,138.9c0,0.9-0.7,1.6-1.6,1.6c-0.9,0-1.6-0.7-1.6-1.6c0-0.9,0.7-1.6,1.6-1.6
		C235.2,137.4,235.9,138.1,235.9,138.9z"/>
	<path class="st0" d="M237,114c0,0.9-0.7,1.6-1.6,1.6c-0.9,0-1.6-0.7-1.6-1.6s0.7-1.6,1.6-1.6S237,113.1,237,114z"/>
	<path class="st0" d="M245.6,113.9c0,0.9-0.7,1.6-1.6,1.6c-0.9,0-1.6-0.7-1.6-1.6s0.7-1.6,1.6-1.6
		C244.9,112.4,245.6,113.1,245.6,113.9z"/>
	<path class="st0" d="M254,113.9c0,0.9-0.7,1.6-1.6,1.6c-0.9,0-1.6-0.7-1.6-1.6s0.7-1.6,1.6-1.6S254,113.1,254,113.9z"/>
	<path class="st0" d="M262.1,113.1c0,0.9-0.7,1.6-1.6,1.6s-1.6-0.7-1.6-1.6s0.7-1.6,1.6-1.6S262.1,112.2,262.1,113.1z"/>
	<path class="st0" d="M240.1,122.1c0,0.9-0.7,1.6-1.6,1.6c-0.9,0-1.6-0.7-1.6-1.6s0.7-1.6,1.6-1.6
		C239.4,120.5,240.1,121.2,240.1,122.1z"/>
	<path class="st0" d="M270.5,113.2c0,0.9-0.7,1.6-1.6,1.6s-1.6-0.7-1.6-1.6s0.7-1.6,1.6-1.6S270.5,112.3,270.5,113.2z"/>
	<path class="st0" d="M248.4,122.1c0,0.9-0.7,1.6-1.6,1.6c-0.9,0-1.6-0.7-1.6-1.6s0.7-1.6,1.6-1.6S248.4,121.2,248.4,122.1z"/>
	<path class="st0" d="M278.8,113.2c0,0.9-0.7,1.6-1.6,1.6s-1.6-0.7-1.6-1.6s0.7-1.6,1.6-1.6S278.8,112.3,278.8,113.2z"/>
	<path class="st0" d="M287,113.3c0,0.9-0.7,1.6-1.6,1.6s-1.6-0.7-1.6-1.6s0.7-1.6,1.6-1.6S287,112.4,287,113.3z"/>
	<path class="st0" d="M256.6,122.1c0,0.9-0.7,1.6-1.6,1.6s-1.6-0.7-1.6-1.6s0.7-1.6,1.6-1.6S256.6,121.3,256.6,122.1z"/>
	<path class="st0" d="M295.2,113.3c0,0.9-0.7,1.6-1.6,1.6s-1.6-0.7-1.6-1.6s0.7-1.6,1.6-1.6C294.5,111.7,295.2,112.4,295.2,113.3z"
		/>
	<path class="st0" d="M264.6,121.5c0,0.9-0.7,1.6-1.6,1.6s-1.6-0.7-1.6-1.6s0.7-1.6,1.6-1.6C263.9,120,264.6,120.7,264.6,121.5z"/>
	<path class="st0" d="M272.8,121.6c0,0.9-0.7,1.6-1.6,1.6s-1.6-0.7-1.6-1.6s0.7-1.6,1.6-1.6C272.1,120,272.8,120.7,272.8,121.6z"/>
	<path class="st0" d="M281,121.7c0,0.9-0.7,1.6-1.6,1.6s-1.6-0.7-1.6-1.6s0.7-1.6,1.6-1.6S281,120.8,281,121.7z"/>
	<path class="st0" d="M242.4,130.4c0,0.9-0.7,1.6-1.6,1.6s-1.6-0.7-1.6-1.6c0-0.9,0.7-1.6,1.6-1.6S242.4,129.6,242.4,130.4z"/>
	<path class="st0" d="M289.1,121.7c0,0.9-0.7,1.6-1.6,1.6s-1.6-0.7-1.6-1.6s0.7-1.6,1.6-1.6S289.1,120.8,289.1,121.7z"/>
	<path class="st0" d="M250.5,130.5c0,0.9-0.7,1.6-1.6,1.6c-0.9,0-1.6-0.7-1.6-1.6c0-0.9,0.7-1.6,1.6-1.6S250.5,129.6,250.5,130.5z"
		/>
	<path class="st0" d="M297.2,121.8c0,0.9-0.7,1.6-1.6,1.6s-1.6-0.7-1.6-1.6s0.7-1.6,1.6-1.6C296.5,120.2,297.2,120.9,297.2,121.8z"
		/>
	<path class="st0" d="M258.5,130.5c0,0.9-0.7,1.6-1.6,1.6s-1.6-0.7-1.6-1.6c0-0.9,0.7-1.6,1.6-1.6
		C257.8,128.9,258.5,129.6,258.5,130.5z"/>
	<path class="st0" d="M266.5,130.1c0,0.9-0.7,1.6-1.6,1.6s-1.6-0.7-1.6-1.6c0-0.9,0.7-1.6,1.6-1.6S266.5,129.3,266.5,130.1z"/>
	<path class="st0" d="M274.6,130.2c0,0.9-0.7,1.6-1.6,1.6s-1.6-0.7-1.6-1.6c0-0.9,0.7-1.6,1.6-1.6
		C273.9,128.6,274.6,129.3,274.6,130.2z"/>
	<path class="st0" d="M282.6,130.2c0,0.9-0.7,1.6-1.6,1.6s-1.6-0.7-1.6-1.6c0-0.9,0.7-1.6,1.6-1.6
		C281.9,128.6,282.6,129.4,282.6,130.2z"/>
	<path class="st0" d="M290.6,130.3c0,0.9-0.7,1.6-1.6,1.6s-1.6-0.7-1.6-1.6c0-0.9,0.7-1.6,1.6-1.6S290.6,129.4,290.6,130.3z"/>
	<path class="st0" d="M298.6,130.3c0,0.9-0.7,1.6-1.6,1.6s-1.6-0.7-1.6-1.6c0-0.9,0.7-1.6,1.6-1.6S298.6,129.4,298.6,130.3z"/>
	<path class="st0" d="M243.9,139c0,0.9-0.7,1.6-1.6,1.6c-0.9,0-1.6-0.7-1.6-1.6c0-0.9,0.7-1.6,1.6-1.6S243.9,138.1,243.9,139z"/>
	<path class="st0" d="M251.8,139c0,0.9-0.7,1.6-1.6,1.6c-0.9,0-1.6-0.7-1.6-1.6c0-0.9,0.7-1.6,1.6-1.6S251.8,138.1,251.8,139z"/>
	<path class="st0" d="M259.8,139c0,0.9-0.7,1.6-1.6,1.6s-1.6-0.7-1.6-1.6c0-0.9,0.7-1.6,1.6-1.6C259.1,137.4,259.8,138.2,259.8,139z
		"/>
	<path class="st0" d="M267.8,138.8c0,0.9-0.7,1.6-1.6,1.6s-1.6-0.7-1.6-1.6c0-0.9,0.7-1.6,1.6-1.6C267,137.2,267.8,138,267.8,138.8z
		"/>
	<path class="st0" d="M275.7,138.9c0,0.9-0.7,1.6-1.6,1.6s-1.6-0.7-1.6-1.6s0.7-1.6,1.6-1.6C275,137.3,275.7,138,275.7,138.9z"/>
	<path class="st0" d="M283.7,138.9c0,0.9-0.7,1.6-1.6,1.6s-1.6-0.7-1.6-1.6s0.7-1.6,1.6-1.6C283,137.3,283.7,138,283.7,138.9z"/>
	<path class="st0" d="M291.6,138.9c0,0.9-0.7,1.6-1.6,1.6s-1.6-0.7-1.6-1.6c0-0.9,0.7-1.6,1.6-1.6
		C290.9,137.3,291.6,138,291.6,138.9z"/>
	<path class="st0" d="M299.6,138.9c0,0.9-0.7,1.6-1.6,1.6s-1.6-0.7-1.6-1.6c0-0.9,0.7-1.6,1.6-1.6
		C298.8,137.4,299.6,138.1,299.6,138.9z"/>
	<path class="st0" d="M244.6,147.6c0,0.9-0.7,1.6-1.6,1.6c-0.9,0-1.6-0.7-1.6-1.6c0-0.9,0.7-1.6,1.6-1.6
		C243.9,146,244.6,146.7,244.6,147.6z"/>
	<path class="st0" d="M252.5,147.6c0,0.9-0.7,1.6-1.6,1.6c-0.9,0-1.6-0.7-1.6-1.6c0-0.9,0.7-1.6,1.6-1.6S252.5,146.7,252.5,147.6z"
		/>
	<path class="st0" d="M260.4,147.6c0,0.9-0.7,1.6-1.6,1.6s-1.6-0.7-1.6-1.6c0-0.9,0.7-1.6,1.6-1.6
		C259.7,146,260.4,146.7,260.4,147.6z"/>
	<path class="st0" d="M268.3,147.6c0,0.9-0.7,1.6-1.6,1.6s-1.6-0.7-1.6-1.6c0-0.9,0.7-1.6,1.6-1.6
		C267.6,146,268.3,146.7,268.3,147.6z"/>
	<path class="st0" d="M276.2,147.6c0,0.9-0.7,1.6-1.6,1.6s-1.6-0.7-1.6-1.6c0-0.9,0.7-1.6,1.6-1.6S276.2,146.7,276.2,147.6z"/>
	<path class="st0" d="M284.2,147.6c0,0.9-0.7,1.6-1.6,1.6s-1.6-0.7-1.6-1.6c0-0.9,0.7-1.6,1.6-1.6
		C283.4,146,284.2,146.7,284.2,147.6z"/>
	<path class="st0" d="M292.1,147.6c0,0.9-0.7,1.6-1.6,1.6s-1.6-0.7-1.6-1.6c0-0.9,0.7-1.6,1.6-1.6S292.1,146.7,292.1,147.6z"/>
	<path class="st0" d="M300,147.6c0,0.9-0.7,1.6-1.6,1.6s-1.6-0.7-1.6-1.6c0-0.9,0.7-1.6,1.6-1.6S300,146.7,300,147.6z"/>
	<path class="st0" d="M160.4,82.1c0,0.9-0.7,1.6-1.6,1.6c-0.9,0-1.6-0.7-1.6-1.6s0.7-1.6,1.6-1.6S160.4,81.2,160.4,82.1z"/>
	<path class="st0" d="M147.2,18.2c0,0.9-0.7,1.6-1.6,1.6c-0.9,0-1.6-0.7-1.6-1.6s0.7-1.6,1.6-1.6C146.5,16.7,147.2,17.4,147.2,18.2z
		"/>
	<path class="st0" d="M147.2,2.4c0,0.9-0.7,1.6-1.6,1.6c-0.9,0-1.6-0.7-1.6-1.6s0.7-1.6,1.6-1.6C146.5,0.8,147.2,1.5,147.2,2.4z"/>
	<path class="st0" d="M151.6,10.2c0,0.9-0.7,1.6-1.6,1.6s-1.6-0.7-1.6-1.6c0-0.9,0.7-1.6,1.6-1.6S151.6,9.4,151.6,10.2z"/>
	<path class="st0" d="M151.6,26.1c0,0.9-0.7,1.6-1.6,1.6s-1.6-0.7-1.6-1.6s0.7-1.6,1.6-1.6S151.6,25.2,151.6,26.1z"/>
	<path class="st0" d="M151.6,49.8c0,0.9-0.7,1.6-1.6,1.6s-1.6-0.7-1.6-1.6s0.7-1.6,1.6-1.6S151.6,49,151.6,49.8z"/>
	<path class="st0" d="M151.6,65.7c0,0.9-0.7,1.6-1.6,1.6s-1.6-0.7-1.6-1.6s0.7-1.6,1.6-1.6S151.6,64.8,151.6,65.7z"/>
	<path class="st0" d="M151.6,81.5c0,0.9-0.7,1.6-1.6,1.6s-1.6-0.7-1.6-1.6s0.7-1.6,1.6-1.6S151.6,80.6,151.6,81.5z"/>
	<path class="st0" d="M156,73.7c0,0.9-0.7,1.6-1.6,1.6c-0.9,0-1.6-0.7-1.6-1.6s0.7-1.6,1.6-1.6C155.2,72.1,156,72.8,156,73.7z"/>
	<path class="st0" d="M160.3,66.1c0,0.9-0.7,1.6-1.6,1.6c-0.9,0-1.6-0.7-1.6-1.6s0.7-1.6,1.6-1.6S160.3,65.2,160.3,66.1z"/>
</g>
<g id="D_x28_212_x29_">
	<path class="st1" d="M20.5,81c0,0.9-0.7,1.6-1.6,1.6s-1.6-0.7-1.6-1.6s0.7-1.6,1.6-1.6S20.5,80.2,20.5,81z"/>
	<path class="st1" d="M29.5,81.2c0,0.9-0.7,1.6-1.6,1.6s-1.6-0.7-1.6-1.6s0.7-1.6,1.6-1.6S29.5,80.3,29.5,81.2z"/>
	<path class="st1" d="M38.6,81.4c0,0.9-0.7,1.6-1.6,1.6c-0.9,0-1.6-0.7-1.6-1.6s0.7-1.6,1.6-1.6C37.9,79.8,38.6,80.5,38.6,81.4z"/>
	<path class="st1" d="M47.8,81.7c0,0.9-0.7,1.6-1.6,1.6c-0.9,0-1.6-0.7-1.6-1.6s0.7-1.6,1.6-1.6S47.8,80.8,47.8,81.7z"/>
	<path class="st1" d="M57.2,82c0,0.9-0.7,1.6-1.6,1.6c-0.9,0-1.6-0.7-1.6-1.6s0.7-1.6,1.6-1.6S57.2,81.1,57.2,82z"/>
	<path class="st1" d="M65.7,83.9c0,0.9-0.7,1.6-1.6,1.6s-1.6-0.7-1.6-1.6s0.7-1.6,1.6-1.6C65,82.3,65.7,83,65.7,83.9z"/>
	<path class="st1" d="M75.4,84.6c0,0.9-0.7,1.6-1.6,1.6s-1.6-0.7-1.6-1.6s0.7-1.6,1.6-1.6S75.4,83.7,75.4,84.6z"/>
	<path class="st1" d="M85.4,85.4c0,0.9-0.7,1.6-1.6,1.6s-1.6-0.7-1.6-1.6s0.7-1.6,1.6-1.6C84.7,83.8,85.4,84.5,85.4,85.4z"/>
	<path class="st1" d="M95.7,86.5c0,0.9-0.7,1.6-1.6,1.6s-1.6-0.7-1.6-1.6s0.7-1.6,1.6-1.6C95,85,95.7,85.7,95.7,86.5z"/>
	<path class="st1" d="M106.5,88.1c0,0.9-0.7,1.6-1.6,1.6s-1.6-0.7-1.6-1.6s0.7-1.6,1.6-1.6S106.5,87.2,106.5,88.1z"/>
	<path class="st1" d="M117.9,90.3c0,0.9-0.7,1.6-1.6,1.6s-1.6-0.7-1.6-1.6s0.7-1.6,1.6-1.6S117.9,89.4,117.9,90.3z"/>
	<path class="st1" d="M82.4,147.6c0,0.9-0.7,1.6-1.6,1.6s-1.6-0.7-1.6-1.6c0-0.9,0.7-1.6,1.6-1.6C81.7,146,82.4,146.7,82.4,147.6z"
		/>
	<path class="st1" d="M3.6,138.9c0,0.9-0.7,1.6-1.6,1.6s-1.6-0.7-1.6-1.6c0-0.9,0.7-1.6,1.6-1.6S3.6,138.1,3.6,138.9z"/>
	<path class="st1" d="M11.6,138.9c0,0.9-0.7,1.6-1.6,1.6c-0.9,0-1.6-0.7-1.6-1.6c0-0.9,0.7-1.6,1.6-1.6
		C10.8,137.3,11.6,138,11.6,138.9z"/>
	<path class="st1" d="M19.5,138.9c0,0.9-0.7,1.6-1.6,1.6s-1.6-0.7-1.6-1.6s0.7-1.6,1.6-1.6C18.8,137.3,19.5,138,19.5,138.9z"/>
	<path class="st1" d="M27.5,138.9c0,0.9-0.7,1.6-1.6,1.6s-1.6-0.7-1.6-1.6s0.7-1.6,1.6-1.6C26.7,137.3,27.5,138,27.5,138.9z"/>
	<path class="st1" d="M35.4,138.8c0,0.9-0.7,1.6-1.6,1.6c-0.9,0-1.6-0.7-1.6-1.6c0-0.9,0.7-1.6,1.6-1.6S35.4,138,35.4,138.8z"/>
	<path class="st1" d="M43.4,139c0,0.9-0.7,1.6-1.6,1.6s-1.6-0.7-1.6-1.6c0-0.9,0.7-1.6,1.6-1.6S43.4,138.2,43.4,139z"/>
	<path class="st1" d="M51.3,139c0,0.9-0.7,1.6-1.6,1.6s-1.6-0.7-1.6-1.6c0-0.9,0.7-1.6,1.6-1.6S51.3,138.1,51.3,139z"/>
	<path class="st1" d="M59.3,139c0,0.9-0.7,1.6-1.6,1.6c-0.9,0-1.6-0.7-1.6-1.6c0-0.9,0.7-1.6,1.6-1.6S59.3,138.1,59.3,139z"/>
	<path class="st1" d="M4.6,130.3c0,0.9-0.7,1.6-1.6,1.6s-1.6-0.7-1.6-1.6c0-0.9,0.7-1.6,1.6-1.6C3.8,128.7,4.6,129.4,4.6,130.3z"/>
	<path class="st1" d="M67.3,138.9c0,0.9-0.7,1.6-1.6,1.6s-1.6-0.7-1.6-1.6c0-0.9,0.7-1.6,1.6-1.6S67.3,138.1,67.3,138.9z"/>
	<path class="st1" d="M12.6,130.3c0,0.9-0.7,1.6-1.6,1.6c-0.9,0-1.6-0.7-1.6-1.6c0-0.9,0.7-1.6,1.6-1.6
		C11.8,128.7,12.6,129.4,12.6,130.3z"/>
	<path class="st1" d="M75.3,138.9c0,0.9-0.7,1.6-1.6,1.6s-1.6-0.7-1.6-1.6c0-0.9,0.7-1.6,1.6-1.6C74.6,137.3,75.3,138,75.3,138.9z"
		/>
	<path class="st1" d="M20.6,130.2c0,0.9-0.7,1.6-1.6,1.6s-1.6-0.7-1.6-1.6c0-0.9,0.7-1.6,1.6-1.6C19.9,128.6,20.6,129.4,20.6,130.2z
		"/>
	<path class="st1" d="M28.6,130.2c0,0.9-0.7,1.6-1.6,1.6s-1.6-0.7-1.6-1.6c0-0.9,0.7-1.6,1.6-1.6S28.6,129.3,28.6,130.2z"/>
	<path class="st1" d="M83.3,138.9c0,0.9-0.7,1.6-1.6,1.6s-1.6-0.7-1.6-1.6c0-0.9,0.7-1.6,1.6-1.6C82.6,137.3,83.3,138,83.3,138.9z"
		/>
	<path class="st1" d="M36.6,130.1c0,0.9-0.7,1.6-1.6,1.6s-1.6-0.7-1.6-1.6c0-0.9,0.7-1.6,1.6-1.6S36.6,129.3,36.6,130.1z"/>
	<path class="st1" d="M44.6,130.5c0,0.9-0.7,1.6-1.6,1.6c-0.9,0-1.6-0.7-1.6-1.6c0-0.9,0.7-1.6,1.6-1.6
		C43.9,128.9,44.6,129.6,44.6,130.5z"/>
	<path class="st1" d="M6,121.8c0,0.9-0.7,1.6-1.6,1.6s-1.6-0.7-1.6-1.6s0.7-1.6,1.6-1.6C5.3,120.2,6,120.9,6,121.8z"/>
	<path class="st1" d="M52.7,130.5c0,0.9-0.7,1.6-1.6,1.6c-0.9,0-1.6-0.7-1.6-1.6c0-0.9,0.7-1.6,1.6-1.6S52.7,129.6,52.7,130.5z"/>
	<path class="st1" d="M14.1,121.7c0,0.9-0.7,1.6-1.6,1.6s-1.6-0.7-1.6-1.6s0.7-1.6,1.6-1.6S14.1,120.8,14.1,121.7z"/>
	<path class="st1" d="M60.8,130.4c0,0.9-0.7,1.6-1.6,1.6s-1.6-0.7-1.6-1.6c0-0.9,0.7-1.6,1.6-1.6S60.8,129.6,60.8,130.4z"/>
	<path class="st1" d="M22.2,121.7c0,0.9-0.7,1.6-1.6,1.6s-1.6-0.7-1.6-1.6s0.7-1.6,1.6-1.6S22.2,120.8,22.2,121.7z"/>
	<path class="st1" d="M30.4,121.6c0,0.9-0.7,1.6-1.6,1.6s-1.6-0.7-1.6-1.6s0.7-1.6,1.6-1.6C29.6,120,30.4,120.7,30.4,121.6z"/>
	<path class="st1" d="M68.9,130.4c0,0.9-0.7,1.6-1.6,1.6s-1.6-0.7-1.6-1.6c0-0.9,0.7-1.6,1.6-1.6C68.2,128.8,68.9,129.5,68.9,130.4z
		"/>
	<path class="st1" d="M38.5,121.5c0,0.9-0.7,1.6-1.6,1.6c-0.9,0-1.6-0.7-1.6-1.6s0.7-1.6,1.6-1.6C37.8,120,38.5,120.7,38.5,121.5z"
		/>
	<path class="st1" d="M8,113.3c0,0.9-0.7,1.6-1.6,1.6s-1.6-0.7-1.6-1.6s0.7-1.6,1.6-1.6S8,112.4,8,113.3z"/>
	<path class="st1" d="M46.6,122.1c0,0.9-0.7,1.6-1.6,1.6c-0.9,0-1.6-0.7-1.6-1.6s0.7-1.6,1.6-1.6C45.9,120.5,46.6,121.3,46.6,122.1z
		"/>
	<path class="st1" d="M77.1,130.4c0,0.9-0.7,1.6-1.6,1.6s-1.6-0.7-1.6-1.6c0-0.9,0.7-1.6,1.6-1.6C76.4,128.8,77.1,129.5,77.1,130.4z
		"/>
	<path class="st1" d="M16.2,113.3c0,0.9-0.7,1.6-1.6,1.6c-0.9,0-1.6-0.7-1.6-1.6s0.7-1.6,1.6-1.6C15.4,111.7,16.2,112.4,16.2,113.3z
		"/>
	<path class="st1" d="M24.4,113.2c0,0.9-0.7,1.6-1.6,1.6s-1.6-0.7-1.6-1.6s0.7-1.6,1.6-1.6C23.7,111.6,24.4,112.3,24.4,113.2z"/>
	<path class="st1" d="M54.8,122.1c0,0.9-0.7,1.6-1.6,1.6s-1.6-0.7-1.6-1.6s0.7-1.6,1.6-1.6S54.8,121.2,54.8,122.1z"/>
	<path class="st1" d="M85.4,130.3c0,0.9-0.7,1.6-1.6,1.6s-1.6-0.7-1.6-1.6s0.7-1.6,1.6-1.6C84.7,128.7,85.4,129.4,85.4,130.3z"/>
	<path class="st1" d="M32.7,113.2c0,0.9-0.7,1.6-1.6,1.6s-1.6-0.7-1.6-1.6s0.7-1.6,1.6-1.6S32.7,112.3,32.7,113.2z"/>
	<path class="st1" d="M63.1,122.1c0,0.9-0.7,1.6-1.6,1.6c-0.9,0-1.6-0.7-1.6-1.6s0.7-1.6,1.6-1.6C62.4,120.5,63.1,121.2,63.1,122.1z
		"/>
	<path class="st1" d="M10.4,105c0,0.9-0.7,1.6-1.6,1.6s-1.6-0.7-1.6-1.6s0.7-1.6,1.6-1.6S10.4,104.1,10.4,105z"/>
	<path class="st1" d="M41,113.1c0,0.9-0.7,1.6-1.6,1.6c-0.9,0-1.6-0.7-1.6-1.6s0.7-1.6,1.6-1.6S41,112.2,41,113.1z"/>
	<path class="st1" d="M18.7,104.9c0,0.9-0.7,1.6-1.6,1.6s-1.6-0.7-1.6-1.6s0.7-1.6,1.6-1.6C18,103.4,18.7,104.1,18.7,104.9z"/>
	<path class="st1" d="M71.5,122.1c0,0.9-0.7,1.6-1.6,1.6s-1.6-0.7-1.6-1.6s0.7-1.6,1.6-1.6S71.5,121.2,71.5,122.1z"/>
	<path class="st1" d="M49.2,113.9c0,0.9-0.7,1.6-1.6,1.6s-1.6-0.7-1.6-1.6s0.7-1.6,1.6-1.6S49.2,113.1,49.2,113.9z"/>
	<path class="st1" d="M27.2,104.9c0,0.9-0.7,1.6-1.6,1.6s-1.6-0.7-1.6-1.6s0.7-1.6,1.6-1.6C26.4,103.3,27.2,104.1,27.2,104.9z"/>
	<path class="st1" d="M13.3,96.8c0,0.9-0.7,1.6-1.6,1.6c-0.9,0-1.6-0.7-1.6-1.6s0.7-1.6,1.6-1.6C12.6,95.2,13.3,95.9,13.3,96.8z"/>
	<path class="st1" d="M57.6,113.9c0,0.9-0.7,1.6-1.6,1.6c-0.9,0-1.6-0.7-1.6-1.6s0.7-1.6,1.6-1.6C56.9,112.4,57.6,113.1,57.6,113.9z
		"/>
	<path class="st1" d="M35.6,104.9c0,0.9-0.7,1.6-1.6,1.6s-1.6-0.7-1.6-1.6s0.7-1.6,1.6-1.6S35.6,104,35.6,104.9z"/>
	<path class="st1" d="M79.9,122.1c0,0.9-0.7,1.6-1.6,1.6s-1.6-0.7-1.6-1.6s0.7-1.6,1.6-1.6C79.2,120.5,79.9,121.2,79.9,122.1z"/>
	<path class="st1" d="M21.8,96.8c0,0.9-0.7,1.6-1.6,1.6s-1.6-0.7-1.6-1.6s0.7-1.6,1.6-1.6C21.1,95.2,21.8,95.9,21.8,96.8z"/>
	<path class="st1" d="M44.2,104.9c0,0.9-0.7,1.6-1.6,1.6c-0.9,0-1.6-0.7-1.6-1.6s0.7-1.6,1.6-1.6S44.2,104,44.2,104.9z"/>
	<path class="st1" d="M66.1,114c0,0.9-0.7,1.6-1.6,1.6s-1.6-0.7-1.6-1.6s0.7-1.6,1.6-1.6C65.4,112.4,66.1,113.1,66.1,114z"/>
	<path class="st1" d="M30.4,96.8c0,0.9-0.7,1.6-1.6,1.6s-1.6-0.7-1.6-1.6s0.7-1.6,1.6-1.6C29.7,95.3,30.4,96,30.4,96.8z"/>
	<path class="st1" d="M52.4,105.9c0,0.9-0.7,1.6-1.6,1.6s-1.6-0.7-1.6-1.6s0.7-1.6,1.6-1.6S52.4,105.1,52.4,105.9z"/>
	<path class="st1" d="M88.5,122.1c0,0.9-0.7,1.6-1.6,1.6s-1.6-0.7-1.6-1.6s0.7-1.6,1.6-1.6S88.5,121.2,88.5,122.1z"/>
	<path class="st1" d="M16.7,88.8c0,0.9-0.7,1.6-1.6,1.6s-1.6-0.7-1.6-1.6s0.7-1.6,1.6-1.6C16,87.2,16.7,87.9,16.7,88.8z"/>
	<path class="st1" d="M74.8,114c0,0.9-0.7,1.6-1.6,1.6s-1.6-0.7-1.6-1.6s0.7-1.6,1.6-1.6C74.1,112.5,74.8,113.2,74.8,114z"/>
	<path class="st1" d="M39.1,96.9c0,0.9-0.7,1.6-1.6,1.6S36,97.8,36,96.9s0.7-1.6,1.6-1.6S39.1,96,39.1,96.9z"/>
	<path class="st1" d="M25.4,88.9c0,0.9-0.7,1.6-1.6,1.6s-1.6-0.7-1.6-1.6s0.7-1.6,1.6-1.6S25.4,88,25.4,88.9z"/>
	<path class="st1" d="M61.1,106.1c0,0.9-0.7,1.6-1.6,1.6c-0.9,0-1.6-0.7-1.6-1.6s0.7-1.6,1.6-1.6C60.4,104.5,61.1,105.2,61.1,106.1z
		"/>
	<path class="st1" d="M48,97c0,0.9-0.7,1.6-1.6,1.6c-0.9,0-1.6-0.7-1.6-1.6s0.7-1.6,1.6-1.6C47.2,95.4,48,96.1,48,97z"/>
	<path class="st1" d="M34.2,89c0,0.9-0.7,1.6-1.6,1.6c-0.9,0-1.6-0.7-1.6-1.6s0.7-1.6,1.6-1.6C33.5,87.4,34.2,88.1,34.2,89z"/>
	<path class="st1" d="M83.6,114.2c0,0.9-0.7,1.6-1.6,1.6s-1.6-0.7-1.6-1.6s0.7-1.6,1.6-1.6S83.6,113.3,83.6,114.2z"/>
	<path class="st1" d="M69.9,106.2c0,0.9-0.7,1.6-1.6,1.6s-1.6-0.7-1.6-1.6s0.7-1.6,1.6-1.6S69.9,105.3,69.9,106.2z"/>
	<path class="st1" d="M56.2,98.3c0,0.9-0.7,1.6-1.6,1.6S53,99.2,53,98.3s0.7-1.6,1.6-1.6S56.2,97.4,56.2,98.3z"/>
	<path class="st1" d="M43.2,89.1c0,0.9-0.7,1.6-1.6,1.6c-0.9,0-1.6-0.7-1.6-1.6s0.7-1.6,1.6-1.6S43.2,88.2,43.2,89.1z"/>
	<path class="st1" d="M65.2,98.5c0,0.9-0.7,1.6-1.6,1.6S62,99.4,62,98.5s0.7-1.6,1.6-1.6C64.5,96.9,65.2,97.6,65.2,98.5z"/>
	<path class="st1" d="M79,106.4c0,0.9-0.7,1.6-1.6,1.6s-1.6-0.7-1.6-1.6s0.7-1.6,1.6-1.6C78.2,104.8,79,105.5,79,106.4z"/>
	<path class="st1" d="M92.7,114.3c0,0.9-0.7,1.6-1.6,1.6s-1.6-0.7-1.6-1.6s0.7-1.6,1.6-1.6C92,112.7,92.7,113.5,92.7,114.3z"/>
	<path class="st1" d="M52.3,89.3c0,0.9-0.7,1.6-1.6,1.6s-1.6-0.7-1.6-1.6s0.7-1.6,1.6-1.6S52.3,88.4,52.3,89.3z"/>
	<path class="st1" d="M60.7,90.9c0,0.9-0.7,1.6-1.6,1.6c-0.9,0-1.6-0.7-1.6-1.6s0.7-1.6,1.6-1.6S60.7,90,60.7,90.9z"/>
	<path class="st1" d="M74.4,98.8c0,0.9-0.7,1.6-1.6,1.6s-1.6-0.7-1.6-1.6s0.7-1.6,1.6-1.6C73.7,97.2,74.4,97.9,74.4,98.8z"/>
	<path class="st1" d="M88.2,106.7c0,0.9-0.7,1.6-1.6,1.6s-1.6-0.7-1.6-1.6s0.7-1.6,1.6-1.6S88.2,105.8,88.2,106.7z"/>
	<path class="st1" d="M70,91.3c0,0.9-0.7,1.6-1.6,1.6s-1.6-0.7-1.6-1.6s0.7-1.6,1.6-1.6C69.3,89.7,70,90.4,70,91.3z"/>
	<path class="st1" d="M83.9,99.2c0,0.9-0.7,1.6-1.6,1.6s-1.6-0.7-1.6-1.6s0.7-1.6,1.6-1.6C83.2,97.6,83.9,98.4,83.9,99.2z"/>
	<path class="st1" d="M97.8,107.2c0,0.9-0.7,1.6-1.6,1.6s-1.6-0.7-1.6-1.6s0.7-1.6,1.6-1.6C97.1,105.6,97.8,106.3,97.8,107.2z"/>
	<path class="st1" d="M79.6,91.9c0,0.9-0.7,1.6-1.6,1.6s-1.6-0.7-1.6-1.6s0.7-1.6,1.6-1.6S79.6,91,79.6,91.9z"/>
	<path class="st1" d="M93.6,99.8c0,0.9-0.7,1.6-1.6,1.6s-1.6-0.7-1.6-1.6s0.7-1.6,1.6-1.6C92.9,98.2,93.6,98.9,93.6,99.8z"/>
	<path class="st1" d="M89.5,92.6c0,0.9-0.7,1.6-1.6,1.6s-1.6-0.7-1.6-1.6S87,91,87.9,91S89.5,91.7,89.5,92.6z"/>
	<path class="st1" d="M103.7,100.7c0,0.9-0.7,1.6-1.6,1.6s-1.6-0.7-1.6-1.6s0.7-1.6,1.6-1.6S103.7,99.8,103.7,100.7z"/>
	<path class="st1" d="M99.7,93.6c0,0.9-0.7,1.6-1.6,1.6s-1.6-0.7-1.6-1.6s0.7-1.6,1.6-1.6S99.7,92.7,99.7,93.6z"/>
	<path class="st1" d="M110.5,95c0,0.9-0.7,1.6-1.6,1.6s-1.6-0.7-1.6-1.6s0.7-1.6,1.6-1.6S110.5,94.1,110.5,95z"/>
	<path id="_x3C_Path_x3E_" class="st1" d="M3.2,147.6c0,0.9-0.7,1.6-1.6,1.6S0,148.5,0,147.6s0.7-1.6,1.6-1.6S3.2,146.7,3.2,147.6z"
		/>
	<path id="_x3C_Path_x3E__00000003091884036096008260000018241669053693461382_" class="st1" d="M11.1,147.6c0,0.9-0.7,1.6-1.6,1.6
		c-0.9,0-1.6-0.7-1.6-1.6c0-0.9,0.7-1.6,1.6-1.6S11.1,146.7,11.1,147.6z"/>
	<path id="_x3C_Path_x3E__00000032643696302259987330000017959881181628002972_" class="st1" d="M19,147.6c0,0.9-0.7,1.6-1.6,1.6
		s-1.6-0.7-1.6-1.6c0-0.9,0.7-1.6,1.6-1.6S19,146.7,19,147.6z"/>
	<path id="_x3C_Path_x3E__00000150799067762682256470000014807026087235448211_" class="st1" d="M26.9,147.6c0,0.9-0.7,1.6-1.6,1.6
		s-1.6-0.7-1.6-1.6c0-0.9,0.7-1.6,1.6-1.6S26.9,146.7,26.9,147.6z"/>
	<path id="_x3C_Path_x3E__00000133501276149760443040000007981956430269127328_" class="st1" d="M34.9,147.6c0,0.9-0.7,1.6-1.6,1.6
		c-0.9,0-1.6-0.7-1.6-1.6c0-0.9,0.7-1.6,1.6-1.6C34.1,146,34.9,146.7,34.9,147.6z"/>
	<path id="_x3C_Path_x3E__00000033354175027714657330000000881437489377604272_" class="st1" d="M42.8,147.6c0,0.9-0.7,1.6-1.6,1.6
		s-1.6-0.7-1.6-1.6c0-0.9,0.7-1.6,1.6-1.6S42.8,146.7,42.8,147.6z"/>
	<path id="_x3C_Path_x3E__00000177448379832249409020000017072271795454460311_" class="st1" d="M50.7,147.6c0,0.9-0.7,1.6-1.6,1.6
		s-1.6-0.7-1.6-1.6c0-0.9,0.7-1.6,1.6-1.6S50.7,146.7,50.7,147.6z"/>
	<path id="_x3C_Path_x3E__00000106134290376243507660000003204348973429601976_" class="st1" d="M58.6,147.6c0,0.9-0.7,1.6-1.6,1.6
		c-0.9,0-1.6-0.7-1.6-1.6c0-0.9,0.7-1.6,1.6-1.6C57.9,146,58.6,146.7,58.6,147.6z"/>
	<path id="_x3C_Path_x3E__00000019661626651368600720000015119628709496300956_" class="st1" d="M66.5,147.6c0,0.9-0.7,1.6-1.6,1.6
		s-1.6-0.7-1.6-1.6c0-0.9,0.7-1.6,1.6-1.6S66.5,146.7,66.5,147.6z"/>
	<path id="_x3C_Path_x3E__00000140696310188447326070000001903033573714439615_" class="st1" d="M74.5,147.6c0,0.9-0.7,1.6-1.6,1.6
		s-1.6-0.7-1.6-1.6c0-0.9,0.7-1.6,1.6-1.6S74.5,146.7,74.5,147.6z"/>
	<path class="st1" d="M24.8,73.5c0,0.9-0.7,1.6-1.6,1.6s-1.6-0.7-1.6-1.6s0.7-1.6,1.6-1.6C24.1,71.9,24.8,72.6,24.8,73.5z"/>
	<path class="st1" d="M34,73.8c0,0.9-0.7,1.6-1.6,1.6c-0.9,0-1.6-0.7-1.6-1.6s0.7-1.6,1.6-1.6C33.3,72.2,34,72.9,34,73.8z"/>
	<path class="st1" d="M29.6,66.2c0,0.9-0.7,1.6-1.6,1.6s-1.6-0.7-1.6-1.6s0.7-1.6,1.6-1.6S29.6,65.3,29.6,66.2z"/>
	<path class="st1" d="M43.4,74.1c0,0.9-0.7,1.6-1.6,1.6s-1.6-0.7-1.6-1.6s0.7-1.6,1.6-1.6S43.4,73.2,43.4,74.1z"/>
	<path class="st1" d="M39,66.6c0,0.9-0.7,1.6-1.6,1.6s-1.6-0.7-1.6-1.6s0.7-1.6,1.6-1.6S39,65.8,39,66.6z"/>
	<path class="st1" d="M52.9,74.6c0,0.9-0.7,1.6-1.6,1.6s-1.6-0.7-1.6-1.6s0.7-1.6,1.6-1.6S52.9,73.7,52.9,74.6z"/>
	<path class="st1" d="M34.7,59.2c0,0.9-0.7,1.6-1.6,1.6c-0.9,0-1.6-0.7-1.6-1.6s0.7-1.6,1.6-1.6C34,57.7,34.7,58.4,34.7,59.2z"/>
	<path class="st1" d="M48.6,67.2c0,0.9-0.7,1.6-1.6,1.6c-0.9,0-1.6-0.7-1.6-1.6s0.7-1.6,1.6-1.6C47.9,65.6,48.6,66.3,48.6,67.2z"/>
	<path class="st1" d="M44.4,59.8c0,0.9-0.7,1.6-1.6,1.6s-1.6-0.7-1.6-1.6s0.7-1.6,1.6-1.6S44.4,59,44.4,59.8z"/>
	<path class="st1" d="M62.6,75.1c0,0.9-0.7,1.6-1.6,1.6c-0.9,0-1.6-0.7-1.6-1.6s0.7-1.6,1.6-1.6C61.9,73.5,62.6,74.2,62.6,75.1z"/>
	<path class="st1" d="M58.5,67.8c0,0.9-0.7,1.6-1.6,1.6s-1.6-0.7-1.6-1.6s0.7-1.6,1.6-1.6S58.5,66.9,58.5,67.8z"/>
	<path class="st1" d="M71.2,77.3c0,0.9-0.7,1.6-1.6,1.6S68,78.2,68,77.3s0.7-1.6,1.6-1.6C70.5,75.7,71.2,76.4,71.2,77.3z"/>
	<path class="st1" d="M54.4,60.6c0,0.9-0.7,1.6-1.6,1.6c-0.9,0-1.6-0.7-1.6-1.6s0.7-1.6,1.6-1.6S54.4,59.7,54.4,60.6z"/>
	<path class="st1" d="M68.6,68.6c0,0.9-0.7,1.6-1.6,1.6s-1.6-0.7-1.6-1.6S66.1,67,67,67S68.6,67.8,68.6,68.6z"/>
	<path class="st1" d="M64.5,61.5c0,0.9-0.7,1.6-1.6,1.6c-0.9,0-1.6-0.7-1.6-1.6s0.7-1.6,1.6-1.6S64.5,60.6,64.5,61.5z"/>
	<path class="st1" d="M81.3,78.3c0,0.9-0.7,1.6-1.6,1.6s-1.6-0.7-1.6-1.6s0.7-1.6,1.6-1.6C80.6,76.7,81.3,77.4,81.3,78.3z"/>
	<path class="st1" d="M77.3,71.2c0,0.9-0.7,1.6-1.6,1.6s-1.6-0.7-1.6-1.6s0.7-1.6,1.6-1.6C76.6,69.6,77.3,70.3,77.3,71.2z"/>
	<path class="st1" d="M75,62.6c0,0.9-0.7,1.6-1.6,1.6s-1.6-0.7-1.6-1.6c0-0.9,0.7-1.6,1.6-1.6S75,61.7,75,62.6z"/>
	<path class="st1" d="M91.8,79.5c0,0.9-0.7,1.6-1.6,1.6s-1.6-0.7-1.6-1.6s0.7-1.6,1.6-1.6C91.1,78,91.8,78.7,91.8,79.5z"/>
	<path class="st1" d="M87.8,72.6c0,0.9-0.7,1.6-1.6,1.6s-1.6-0.7-1.6-1.6s0.7-1.6,1.6-1.6S87.8,71.7,87.8,72.6z"/>
	<path class="st1" d="M83.8,65.6c0,0.9-0.7,1.6-1.6,1.6s-1.6-0.7-1.6-1.6s0.7-1.6,1.6-1.6C83.1,64,83.8,64.7,83.8,65.6z"/>
	<path class="st1" d="M102.6,81.2c0,0.9-0.7,1.6-1.6,1.6s-1.6-0.7-1.6-1.6s0.7-1.6,1.6-1.6S102.6,80.3,102.6,81.2z"/>
	<path class="st1" d="M98.6,74.3c0,0.9-0.7,1.6-1.6,1.6s-1.6-0.7-1.6-1.6s0.7-1.6,1.6-1.6C97.9,72.7,98.6,73.4,98.6,74.3z"/>
	<path class="st1" d="M94.7,67.4c0,0.9-0.7,1.6-1.6,1.6s-1.6-0.7-1.6-1.6s0.7-1.6,1.6-1.6S94.7,66.5,94.7,67.4z"/>
	<path class="st1" d="M106,69.7c0,0.9-0.7,1.6-1.6,1.6s-1.6-0.7-1.6-1.6s0.7-1.6,1.6-1.6S106,68.8,106,69.7z"/>
	<path class="st1" d="M109.9,76.5c0,0.9-0.7,1.6-1.6,1.6s-1.6-0.7-1.6-1.6s0.7-1.6,1.6-1.6C109.2,75,109.9,75.7,109.9,76.5z"/>
	<path class="st1" d="M113.9,83.4c0,0.9-0.7,1.6-1.6,1.6s-1.6-0.7-1.6-1.6s0.7-1.6,1.6-1.6C113.2,81.8,113.9,82.5,113.9,83.4z"/>
	<path class="st1" d="M117.7,72.7c0,0.9-0.7,1.6-1.6,1.6s-1.6-0.7-1.6-1.6s0.7-1.6,1.6-1.6S117.7,71.8,117.7,72.7z"/>
	<path class="st1" d="M121.8,79.6c0,0.9-0.7,1.6-1.6,1.6s-1.6-0.7-1.6-1.6s0.7-1.6,1.6-1.6C121.1,78,121.8,78.7,121.8,79.6z"/>
	<path class="st1" d="M125.8,86.5c0,0.9-0.7,1.6-1.6,1.6s-1.6-0.7-1.6-1.6s0.7-1.6,1.6-1.6C125.1,84.9,125.8,85.6,125.8,86.5z"/>
	<path class="st1" d="M130,76.7c0,0.9-0.7,1.6-1.6,1.6c-0.9,0-1.6-0.7-1.6-1.6s0.7-1.6,1.6-1.6C129.3,75.1,130,75.8,130,76.7z"/>
	<path class="st1" d="M134.2,83.7c0,0.9-0.7,1.6-1.6,1.6c-0.9,0-1.6-0.7-1.6-1.6s0.7-1.6,1.6-1.6S134.2,82.8,134.2,83.7z"/>
	<path class="st1" d="M142.8,82.1c0,0.9-0.7,1.6-1.6,1.6c-0.9,0-1.6-0.7-1.6-1.6s0.7-1.6,1.6-1.6S142.8,81.2,142.8,82.1z"/>
	<path class="st1" d="M52.5,40.2c0,0.9-0.7,1.6-1.6,1.6c-0.9,0-1.6-0.7-1.6-1.6c0-0.9,0.7-1.6,1.6-1.6
		C51.8,38.7,52.5,39.4,52.5,40.2z"/>
	<path class="st1" d="M63.1,41.6c0,0.9-0.7,1.6-1.6,1.6c-0.9,0-1.6-0.7-1.6-1.6s0.7-1.6,1.6-1.6C62.4,40,63.1,40.7,63.1,41.6z"/>
	<path class="st1" d="M59.1,34.6c0,0.9-0.7,1.6-1.6,1.6S56,35.5,56,34.6s0.7-1.6,1.6-1.6S59.1,33.8,59.1,34.6z"/>
	<path class="st1" d="M74,43.3c0,0.9-0.7,1.6-1.6,1.6s-1.6-0.7-1.6-1.6s0.7-1.6,1.6-1.6C73.2,41.7,74,42.4,74,43.3z"/>
	<path class="st1" d="M70,36.3c0,0.9-0.7,1.6-1.6,1.6s-1.6-0.7-1.6-1.6c0-0.9,0.7-1.6,1.6-1.6S70,35.5,70,36.3z"/>
	<path class="st1" d="M66.1,29.4c0,0.9-0.7,1.6-1.6,1.6s-1.6-0.7-1.6-1.6s0.7-1.6,1.6-1.6C65.4,27.8,66.1,28.6,66.1,29.4z"/>
	<path class="st1" d="M81.2,38.4c0,0.9-0.7,1.6-1.6,1.6S78,39.3,78,38.4s0.7-1.6,1.6-1.6C80.5,36.8,81.2,37.5,81.2,38.4z"/>
	<path class="st1" d="M77.3,31.5c0,0.9-0.7,1.6-1.6,1.6s-1.6-0.7-1.6-1.6s0.7-1.6,1.6-1.6S77.3,30.6,77.3,31.5z"/>
	<path class="st1" d="M73.3,24.6c0,0.9-0.7,1.6-1.6,1.6s-1.6-0.7-1.6-1.6s0.7-1.6,1.6-1.6S73.3,23.8,73.3,24.6z"/>
	<path class="st1" d="M80.8,20.3c0,0.9-0.7,1.6-1.6,1.6s-1.6-0.7-1.6-1.6s0.7-1.6,1.6-1.6C80.1,18.7,80.8,19.4,80.8,20.3z"/>
	<path class="st1" d="M84.8,27.1c0,0.9-0.7,1.6-1.6,1.6s-1.6-0.7-1.6-1.6s0.7-1.6,1.6-1.6C84.1,25.6,84.8,26.3,84.8,27.1z"/>
	<path class="st1" d="M88.7,34c0,0.9-0.7,1.6-1.6,1.6s-1.6-0.7-1.6-1.6c0-0.9,0.7-1.6,1.6-1.6S88.7,33.1,88.7,34z"/>
	<path class="st1" d="M88.6,16.4c0,0.9-0.7,1.6-1.6,1.6s-1.6-0.7-1.6-1.6s0.7-1.6,1.6-1.6C87.8,14.8,88.6,15.5,88.6,16.4z"/>
	<path class="st1" d="M92.6,23.2c0,0.9-0.7,1.6-1.6,1.6s-1.6-0.7-1.6-1.6s0.7-1.6,1.6-1.6S92.6,22.4,92.6,23.2z"/>
	<path class="st1" d="M96.6,30.1c0,0.9-0.7,1.6-1.6,1.6s-1.6-0.7-1.6-1.6s0.7-1.6,1.6-1.6S96.6,29.2,96.6,30.1z"/>
	<path class="st1" d="M96.5,12.9c0,0.9-0.7,1.6-1.6,1.6s-1.6-0.7-1.6-1.6c0-0.9,0.7-1.6,1.6-1.6S96.5,12,96.5,12.9z"/>
	<path class="st1" d="M100.6,19.8c0,0.9-0.7,1.6-1.6,1.6s-1.6-0.7-1.6-1.6s0.7-1.6,1.6-1.6C99.9,18.3,100.6,19,100.6,19.8z"/>
	<path class="st1" d="M104.6,26.8c0,0.9-0.7,1.6-1.6,1.6s-1.6-0.7-1.6-1.6s0.7-1.6,1.6-1.6C103.9,25.2,104.6,25.9,104.6,26.8z"/>
	<path class="st1" d="M104.7,9.9c0,0.9-0.7,1.6-1.6,1.6s-1.6-0.7-1.6-1.6c0-0.9,0.7-1.6,1.6-1.6C104,8.4,104.7,9.1,104.7,9.9z"/>
	<path class="st1" d="M108.8,16.9c0,0.9-0.7,1.6-1.6,1.6s-1.6-0.7-1.6-1.6s0.7-1.6,1.6-1.6C108.1,15.3,108.8,16.1,108.8,16.9z"/>
	<path class="st1" d="M112.9,23.9c0,0.9-0.7,1.6-1.6,1.6s-1.6-0.7-1.6-1.6s0.7-1.6,1.6-1.6C112.2,22.4,112.9,23.1,112.9,23.9z"/>
	<path class="st1" d="M113,7.4c0,0.9-0.7,1.6-1.6,1.6s-1.6-0.7-1.6-1.6s0.7-1.6,1.6-1.6C112.3,5.9,113,6.6,113,7.4z"/>
	<path class="st1" d="M117.1,14.5c0,0.9-0.7,1.6-1.6,1.6s-1.6-0.7-1.6-1.6c0-0.9,0.7-1.6,1.6-1.6S117.1,13.7,117.1,14.5z"/>
	<path class="st1" d="M121.3,21.7c0,0.9-0.7,1.6-1.6,1.6s-1.6-0.7-1.6-1.6s0.7-1.6,1.6-1.6S121.3,20.8,121.3,21.7z"/>
	<path class="st1" d="M121.4,5.4c0,0.9-0.7,1.6-1.6,1.6s-1.6-0.7-1.6-1.6s0.7-1.6,1.6-1.6C120.7,3.8,121.4,4.5,121.4,5.4z"/>
	<path class="st1" d="M125.6,12.7c0,0.9-0.7,1.6-1.6,1.6s-1.6-0.7-1.6-1.6c0-0.9,0.7-1.6,1.6-1.6C124.9,11.1,125.6,11.8,125.6,12.7z
		"/>
	<path class="st1" d="M129.9,20c0,0.9-0.7,1.6-1.6,1.6c-0.9,0-1.6-0.7-1.6-1.6s0.7-1.6,1.6-1.6C129.1,18.4,129.9,19.1,129.9,20z"/>
	<path class="st1" d="M130,3.9c0,0.9-0.7,1.6-1.6,1.6c-0.9,0-1.6-0.7-1.6-1.6s0.7-1.6,1.6-1.6C129.3,2.3,130,3,130,3.9z"/>
	<path class="st1" d="M134.2,11.3c0,0.9-0.7,1.6-1.6,1.6c-0.9,0-1.6-0.7-1.6-1.6s0.7-1.6,1.6-1.6S134.2,10.4,134.2,11.3z"/>
	<path class="st1" d="M138.5,18.8c0,0.9-0.7,1.6-1.6,1.6s-1.6-0.7-1.6-1.6s0.7-1.6,1.6-1.6S138.5,17.9,138.5,18.8z"/>
	<path class="st1" d="M138.6,2.9c0,0.9-0.7,1.6-1.6,1.6c-0.9,0-1.6-0.7-1.6-1.6s0.7-1.6,1.6-1.6C137.9,1.3,138.6,2,138.6,2.9z"/>
	<path class="st1" d="M142.9,10.5c0,0.9-0.7,1.6-1.6,1.6c-0.9,0-1.6-0.7-1.6-1.6c0-0.9,0.7-1.6,1.6-1.6S142.9,9.6,142.9,10.5z"/>
	<path class="st1" d="M85.1,45.3c0,0.9-0.7,1.6-1.6,1.6s-1.6-0.7-1.6-1.6c0-0.9,0.7-1.6,1.6-1.6S85.1,44.4,85.1,45.3z"/>
	<path class="st1" d="M92.7,40.9c0,0.9-0.7,1.6-1.6,1.6s-1.6-0.7-1.6-1.6s0.7-1.6,1.6-1.6C92,39.3,92.7,40,92.7,40.9z"/>
	<path class="st1" d="M96.7,47.7c0,0.9-0.7,1.6-1.6,1.6s-1.6-0.7-1.6-1.6s0.7-1.6,1.6-1.6S96.7,46.8,96.7,47.7z"/>
	<path class="st1" d="M105.7,52c0,0.9-0.7,1.6-1.6,1.6s-1.6-0.7-1.6-1.6s0.7-1.6,1.6-1.6C105,50.5,105.7,51.2,105.7,52z"/>
	<path class="st1" d="M100.6,37c0,0.9-0.7,1.6-1.6,1.6s-1.6-0.7-1.6-1.6c0-0.9,0.7-1.6,1.6-1.6S100.6,36.1,100.6,37z"/>
	<path class="st1" d="M104.6,43.9c0,0.9-0.7,1.6-1.6,1.6s-1.6-0.7-1.6-1.6c0-0.9,0.7-1.6,1.6-1.6C103.9,42.3,104.6,43,104.6,43.9z"
		/>
	<path class="st1" d="M113.7,48.7c0,0.9-0.7,1.6-1.6,1.6s-1.6-0.7-1.6-1.6c0-0.9,0.7-1.6,1.6-1.6C113,47.1,113.7,47.9,113.7,48.7z"
		/>
	<path class="st1" d="M108.7,33.7c0,0.9-0.7,1.6-1.6,1.6s-1.6-0.7-1.6-1.6s0.7-1.6,1.6-1.6C108,32.1,108.7,32.8,108.7,33.7z"/>
	<path class="st1" d="M117.7,55.7c0,0.9-0.7,1.6-1.6,1.6s-1.6-0.7-1.6-1.6s0.7-1.6,1.6-1.6C117,54.1,117.7,54.8,117.7,55.7z"/>
	<path class="st1" d="M112.8,40.6c0,0.9-0.7,1.6-1.6,1.6s-1.6-0.7-1.6-1.6c0-0.9,0.7-1.6,1.6-1.6C112.1,39,112.8,39.8,112.8,40.6z"
		/>
	<path class="st1" d="M117,31c0,0.9-0.7,1.6-1.6,1.6s-1.6-0.7-1.6-1.6s0.7-1.6,1.6-1.6C116.3,29.4,117,30.1,117,31z"/>
	<path class="st1" d="M121.8,46.1c0,0.9-0.7,1.6-1.6,1.6s-1.6-0.7-1.6-1.6c0-0.9,0.7-1.6,1.6-1.6C121.1,44.5,121.8,45.2,121.8,46.1z
		"/>
	<path class="st1" d="M121.2,38c0,0.9-0.7,1.6-1.6,1.6S118,38.9,118,38s0.7-1.6,1.6-1.6S121.2,37.2,121.2,38z"/>
	<path class="st1" d="M126,53.1c0,0.9-0.7,1.6-1.6,1.6s-1.6-0.7-1.6-1.6s0.7-1.6,1.6-1.6C125.3,51.6,126,52.3,126,53.1z"/>
	<path class="st1" d="M130.1,60.3c0,0.9-0.7,1.6-1.6,1.6c-0.9,0-1.6-0.7-1.6-1.6s0.7-1.6,1.6-1.6C129.4,58.7,130.1,59.4,130.1,60.3z
		"/>
	<path class="st1" d="M125.5,28.8c0,0.9-0.7,1.6-1.6,1.6s-1.6-0.7-1.6-1.6s0.7-1.6,1.6-1.6S125.5,28,125.5,28.8z"/>
	<path class="st1" d="M130.2,44c0,0.9-0.7,1.6-1.6,1.6c-0.9,0-1.6-0.7-1.6-1.6c0-0.9,0.7-1.6,1.6-1.6
		C129.5,42.4,130.2,43.2,130.2,44z"/>
	<path class="st1" d="M129.7,36.1c0,0.9-0.7,1.6-1.6,1.6s-1.6-0.7-1.6-1.6c0-0.9,0.7-1.6,1.6-1.6C129,34.5,129.7,35.2,129.7,36.1z"
		/>
	<path class="st1" d="M134.4,51.3c0,0.9-0.7,1.6-1.6,1.6c-0.9,0-1.6-0.7-1.6-1.6c0-0.9,0.7-1.6,1.6-1.6S134.4,50.4,134.4,51.3z"/>
	<path class="st1" d="M134.1,27.3c0,0.9-0.7,1.6-1.6,1.6c-0.9,0-1.6-0.7-1.6-1.6s0.7-1.6,1.6-1.6C133.4,25.7,134.1,26.4,134.1,27.3z
		"/>
	<path class="st1" d="M138.6,58.7c0,0.9-0.7,1.6-1.6,1.6c-0.9,0-1.6-0.7-1.6-1.6s0.7-1.6,1.6-1.6C137.9,57.1,138.6,57.8,138.6,58.7z
		"/>
	<path class="st1" d="M138.7,42.7c0,0.9-0.7,1.6-1.6,1.6c-0.9,0-1.6-0.7-1.6-1.6s0.7-1.6,1.6-1.6C138,41.1,138.7,41.8,138.7,42.7z"
		/>
	<path class="st1" d="M138.4,34.7c0,0.9-0.7,1.6-1.6,1.6c-0.9,0-1.6-0.7-1.6-1.6c0-0.9,0.7-1.6,1.6-1.6
		C137.7,33.2,138.4,33.9,138.4,34.7z"/>
	<path class="st1" d="M142.9,66.1c0,0.9-0.7,1.6-1.6,1.6c-0.9,0-1.6-0.7-1.6-1.6s0.7-1.6,1.6-1.6S142.9,65.2,142.9,66.1z"/>
	<path class="st1" d="M143,50.2c0,0.9-0.7,1.6-1.6,1.6c-0.9,0-1.6-0.7-1.6-1.6c0-0.9,0.7-1.6,1.6-1.6C142.3,48.6,143,49.3,143,50.2z
		"/>
	<path class="st1" d="M142.8,26.4c0,0.9-0.7,1.6-1.6,1.6c-0.9,0-1.6-0.7-1.6-1.6s0.7-1.6,1.6-1.6S142.8,25.5,142.8,26.4z"/>
	<path class="st1" d="M147.3,57.9c0,0.9-0.7,1.6-1.6,1.6s-1.6-0.7-1.6-1.6c0-0.9,0.7-1.6,1.6-1.6S147.3,57,147.3,57.9z"/>
	<path class="st1" d="M147.3,42c0,0.9-0.7,1.6-1.6,1.6s-1.6-0.7-1.6-1.6c0-0.9,0.7-1.6,1.6-1.6S147.3,41.1,147.3,42z"/>
	<path class="st1" d="M147.2,34.1c0,0.9-0.7,1.6-1.6,1.6c-0.9,0-1.6-0.7-1.6-1.6s0.7-1.6,1.6-1.6S147.2,33.2,147.2,34.1z"/>
	<path class="st1" d="M40.3,52.6c0,0.9-0.7,1.6-1.6,1.6c-0.9,0-1.6-0.7-1.6-1.6c0-0.9,0.7-1.6,1.6-1.6S40.3,51.7,40.3,52.6z"/>
	<path class="st1" d="M50.3,53.4c0,0.9-0.7,1.6-1.6,1.6c-0.9,0-1.6-0.7-1.6-1.6c0-0.9,0.7-1.6,1.6-1.6
		C49.6,51.8,50.3,52.5,50.3,53.4z"/>
	<path class="st1" d="M46.2,46.2c0,0.9-0.7,1.6-1.6,1.6S43,47.1,43,46.2c0-0.9,0.7-1.6,1.6-1.6S46.2,45.3,46.2,46.2z"/>
	<path class="st1" d="M60.5,54.4c0,0.9-0.7,1.6-1.6,1.6s-1.6-0.7-1.6-1.6c0-0.9,0.7-1.6,1.6-1.6S60.5,53.5,60.5,54.4z"/>
	<path class="st1" d="M56.5,47.3c0,0.9-0.7,1.6-1.6,1.6c-0.9,0-1.6-0.7-1.6-1.6s0.7-1.6,1.6-1.6S56.5,46.4,56.5,47.3z"/>
	<path class="st1" d="M71,55.6c0,0.9-0.7,1.6-1.6,1.6s-1.6-0.7-1.6-1.6c0-0.9,0.7-1.6,1.6-1.6S71,54.7,71,55.6z"/>
	<path class="st1" d="M67,48.6c0,0.9-0.7,1.6-1.6,1.6s-1.6-0.7-1.6-1.6c0-0.9,0.7-1.6,1.6-1.6S67,47.7,67,48.6z"/>
	<path class="st1" d="M81.8,57.1c0,0.9-0.7,1.6-1.6,1.6s-1.6-0.7-1.6-1.6s0.7-1.6,1.6-1.6C81.1,55.5,81.8,56.2,81.8,57.1z"/>
	<path class="st1" d="M77.9,50.2c0,0.9-0.7,1.6-1.6,1.6s-1.6-0.7-1.6-1.6s0.7-1.6,1.6-1.6C77.2,48.6,77.9,49.3,77.9,50.2z"/>
	<path class="st1" d="M90.8,60.5c0,0.9-0.7,1.6-1.6,1.6s-1.6-0.7-1.6-1.6c0-0.9,0.7-1.6,1.6-1.6C90,58.9,90.8,59.6,90.8,60.5z"/>
	<path class="st1" d="M89.1,52.1c0,0.9-0.7,1.6-1.6,1.6s-1.6-0.7-1.6-1.6s0.7-1.6,1.6-1.6S89.1,51.3,89.1,52.1z"/>
	<path class="st1" d="M98.1,56c0,0.9-0.7,1.6-1.6,1.6s-1.6-0.7-1.6-1.6s0.7-1.6,1.6-1.6S98.1,55.1,98.1,56z"/>
	<path class="st1" d="M102,62.8c0,0.9-0.7,1.6-1.6,1.6s-1.6-0.7-1.6-1.6s0.7-1.6,1.6-1.6C101.3,61.2,102,62,102,62.8z"/>
	<path class="st1" d="M109.7,58.9c0,0.9-0.7,1.6-1.6,1.6s-1.6-0.7-1.6-1.6s0.7-1.6,1.6-1.6C109,57.3,109.7,58,109.7,58.9z"/>
	<path class="st1" d="M113.7,65.8c0,0.9-0.7,1.6-1.6,1.6s-1.6-0.7-1.6-1.6s0.7-1.6,1.6-1.6C113,64.2,113.7,64.9,113.7,65.8z"/>
	<path class="st1" d="M121.8,62.7c0,0.9-0.7,1.6-1.6,1.6s-1.6-0.7-1.6-1.6c0-0.9,0.7-1.6,1.6-1.6C121.1,61.1,121.8,61.8,121.8,62.7z
		"/>
	<path class="st1" d="M125.9,69.6c0,0.9-0.7,1.6-1.6,1.6s-1.6-0.7-1.6-1.6s0.7-1.6,1.6-1.6S125.9,68.8,125.9,69.6z"/>
	<path class="st1" d="M134.3,67.4c0,0.9-0.7,1.6-1.6,1.6c-0.9,0-1.6-0.7-1.6-1.6s0.7-1.6,1.6-1.6C133.6,65.9,134.3,66.6,134.3,67.4z
		"/>
	<path class="st1" d="M138.5,74.7c0,0.9-0.7,1.6-1.6,1.6s-1.6-0.7-1.6-1.6s0.7-1.6,1.6-1.6S138.5,73.8,138.5,74.7z"/>
</g>
<g id="V_x28_1_x29_">
	<path class="st2" d="M147.2,73.7c0,0.9-0.7,1.6-1.6,1.6c-0.9,0-1.6-0.7-1.6-1.6s0.7-1.6,1.6-1.6S147.2,72.8,147.2,73.7z"/>
</g>
</svg>
