<?xml version="1.0" encoding="utf-8"?>
<!-- Generator: Adobe Illustrator 27.8.1, SVG Export Plug-In . SVG Version: 6.00 Build 0)  -->
<svg version="1.1" id="Layer_1" xmlns="http://www.w3.org/2000/svg" xmlns:xlink="http://www.w3.org/1999/xlink" x="0px" y="0px"
	 viewBox="0 0 300 150" style="enable-background:new 0 0 300 150;" xml:space="preserve">
<style type="text/css">
	.st0{fill:#E85757;}
	.st1{fill:#F79F4F;}
	.st2{fill:#3C9CEF;}
</style>
<path class="st0" d="M159.2,9.3c-1.7,0-3.1-1.4-3.1-3.1s1.4-3.1,3.1-3.1c1.7,0,3.1,1.4,3.1,3.1C162.2,7.9,160.9,9.3,159.2,9.3z"/>
<path class="st0" d="M159.5,24.8c-1.7,0-3.1-1.4-3.1-3.1s1.4-3.1,3.1-3.1c1.7,0,3.1,1.4,3.1,3.1C162.5,23.4,161.2,24.8,159.5,24.8z"
	/>
<path class="st0" d="M159.5,40.5c-1.7,0-3.1-1.4-3.1-3.1c0-1.7,1.4-3.1,3.1-3.1c1.7,0,3.1,1.4,3.1,3.1
	C162.5,39.1,161.2,40.5,159.5,40.5z"/>
<path class="st0" d="M159.1,55.9c-1.7,0-3.1-1.4-3.1-3.1c0-1.7,1.4-3.1,3.1-3.1c1.7,0,3.1,1.4,3.1,3.1
	C162.2,54.6,160.8,55.9,159.1,55.9z"/>
<path class="st0" d="M159.2,71.2c-1.7,0-3.1-1.4-3.1-3.1s1.4-3.1,3.1-3.1s3.1,1.4,3.1,3.1C162.3,69.8,160.9,71.2,159.2,71.2z"/>
<path class="st0" d="M179,11.8c-1.7,0-3.1-1.4-3.1-3.1s1.4-3.1,3.1-3.1c1.7,0,3.1,1.4,3.1,3.1S180.7,11.8,179,11.8z"/>
<path class="st0" d="M178.6,27.5c-1.7,0-3.1-1.4-3.1-3.1s1.4-3.1,3.1-3.1c1.7,0,3.1,1.4,3.1,3.1S180.3,27.5,178.6,27.5z"/>
<path class="st0" d="M177.9,43.5c-1.7,0-3.1-1.4-3.1-3.1c0-1.7,1.4-3.1,3.1-3.1c1.7,0,3.1,1.4,3.1,3.1
	C180.9,42.1,179.6,43.5,177.9,43.5z"/>
<path class="st0" d="M176.8,59.1c-1.7,0-3.1-1.4-3.1-3.1c0-1.7,1.4-3.1,3.1-3.1s3.1,1.4,3.1,3.1C179.8,57.7,178.4,59.1,176.8,59.1z"
	/>
<path class="st0" d="M175.7,74.7c-1.7,0-3.1-1.4-3.1-3.1s1.4-3.1,3.1-3.1c1.7,0,3.1,1.4,3.1,3.1C178.8,73.3,177.4,74.7,175.7,74.7z"
	/>
<path class="st0" d="M197.9,16.9c-1.7,0-3.1-1.4-3.1-3.1s1.4-3.1,3.1-3.1c1.7,0,3.1,1.4,3.1,3.1S199.5,16.9,197.9,16.9z"/>
<path class="st0" d="M196.7,33c-1.7,0-3.1-1.4-3.1-3.1s1.4-3.1,3.1-3.1c1.7,0,3.1,1.4,3.1,3.1S198.4,33,196.7,33z"/>
<path class="st0" d="M195.2,49.2c-1.7,0-3.1-1.4-3.1-3.1c0-1.7,1.4-3.1,3.1-3.1s3.1,1.4,3.1,3.1S196.9,49.2,195.2,49.2z"/>
<path class="st0" d="M193.2,65.2c-1.7,0-3.1-1.4-3.1-3.1c0-1.7,1.4-3.1,3.1-3.1c1.7,0,3.1,1.4,3.1,3.1
	C196.2,63.8,194.9,65.2,193.2,65.2z"/>
<path class="st0" d="M190.8,81.1c-1.7,0-3.1-1.4-3.1-3.1s1.4-3.1,3.1-3.1c1.7,0,3.1,1.4,3.1,3.1S192.5,81.1,190.8,81.1z"/>
<path class="st0" d="M215.7,24.3c-1.7,0-3.1-1.4-3.1-3.1s1.4-3.1,3.1-3.1c1.7,0,3.1,1.4,3.1,3.1S217.3,24.3,215.7,24.3z"/>
<path class="st0" d="M232.2,33.9c-1.7,0-3.1-1.4-3.1-3.1c0-1.7,1.4-3.1,3.1-3.1s3.1,1.4,3.1,3.1C235.2,32.5,233.9,33.9,232.2,33.9z"
	/>
<path class="st0" d="M213.6,40.8c-1.7,0-3.1-1.4-3.1-3.1c0-1.7,1.4-3.1,3.1-3.1s3.1,1.4,3.1,3.1C216.6,39.4,215.3,40.8,213.6,40.8z"
	/>
<path class="st0" d="M211.2,57.5c-1.7,0-3.1-1.4-3.1-3.1c0-1.7,1.4-3.1,3.1-3.1s3.1,1.4,3.1,3.1S212.9,57.5,211.2,57.5z"/>
<path class="st0" d="M208,73.9c-1.7,0-3.1-1.4-3.1-3.1s1.4-3.1,3.1-3.1c1.7,0,3.1,1.4,3.1,3.1S209.7,73.9,208,73.9z"/>
<path class="st0" d="M204.3,90.3c-1.7,0-3.1-1.4-3.1-3.1s1.4-3.1,3.1-3.1c1.7,0,3.1,1.4,3.1,3.1C207.3,88.9,206,90.3,204.3,90.3z"/>
<path class="st0" d="M247.2,45.5c-1.7,0-3.1-1.4-3.1-3.1c0-1.7,1.4-3.1,3.1-3.1c1.7,0,3.1,1.4,3.1,3.1S248.9,45.5,247.2,45.5z"/>
<path class="st0" d="M229.1,50.9c-1.7,0-3.1-1.4-3.1-3.1c0-1.7,1.4-3.1,3.1-3.1s3.1,1.4,3.1,3.1C232.2,49.5,230.8,50.9,229.1,50.9z"
	/>
<path class="st0" d="M260.6,58.9c-1.7,0-3.1-1.4-3.1-3.1c0-1.7,1.4-3.1,3.1-3.1s3.1,1.4,3.1,3.1S262.4,58.9,260.6,58.9z"/>
<path class="st0" d="M242.9,63c-1.7,0-3.1-1.4-3.1-3.1c0-1.7,1.4-3.1,3.1-3.1s3.1,1.4,3.1,3.1S244.6,63,242.9,63z"/>
<path class="st0" d="M225.7,68c-1.7,0-3.1-1.4-3.1-3.1s1.4-3.1,3.1-3.1c1.7,0,3.1,1.4,3.1,3.1C228.7,66.7,227.4,68,225.7,68z"/>
<path class="st0" d="M221.2,84.9c-1.7,0-3.1-1.4-3.1-3.1s1.4-3.1,3.1-3.1c1.7,0,3.1,1.4,3.1,3.1C224.2,83.5,222.9,84.9,221.2,84.9z"
	/>
<path class="st0" d="M238.3,80.7c-1.7,0-3.1-1.4-3.1-3.1s1.4-3.1,3.1-3.1s3.1,1.4,3.1,3.1C241.3,79.3,239.9,80.7,238.3,80.7z"/>
<path class="st0" d="M255,76.9c-1.7,0-3.1-1.4-3.1-3.1s1.4-3.1,3.1-3.1s3.1,1.4,3.1,3.1C258.1,75.6,256.7,76.9,255,76.9z"/>
<path class="st0" d="M272.3,73.9c-1.7,0-3.1-1.4-3.1-3.1s1.4-3.1,3.1-3.1s3.1,1.4,3.1,3.1C275.3,72.6,274,73.9,272.3,73.9z"/>
<path class="st0" d="M215.7,101.7c-1.7,0-3.1-1.4-3.1-3.1s1.4-3.1,3.1-3.1c1.7,0,3.1,1.4,3.1,3.1
	C218.8,100.3,217.4,101.7,215.7,101.7z"/>
<path class="st0" d="M232.2,98c-1.7,0-3.1-1.4-3.1-3.1s1.4-3.1,3.1-3.1c1.7,0,3.1,1.4,3.1,3.1S233.9,98,232.2,98z"/>
<path class="st0" d="M248.8,95.1c-1.7,0-3.1-1.4-3.1-3.1s1.4-3.1,3.1-3.1s3.1,1.4,3.1,3.1C251.9,93.7,250.5,95.1,248.8,95.1z"/>
<path class="st0" d="M265,92.5c-1.7,0-3.1-1.4-3.1-3.1s1.4-3.1,3.1-3.1s3.1,1.4,3.1,3.1S266.7,92.5,265,92.5z"/>
<path class="st0" d="M281.9,90.4c-1.7,0-3.1-1.4-3.1-3.1s1.4-3.1,3.1-3.1s3.1,1.4,3.1,3.1C284.9,89,283.6,90.4,281.9,90.4z"/>
<path class="st0" d="M224.8,115.2c-1.7,0-3.1-1.4-3.1-3.1s1.4-3.1,3.1-3.1s3.1,1.4,3.1,3.1C227.9,113.8,226.5,115.2,224.8,115.2z"/>
<path class="st0" d="M240.9,112.8c-1.7,0-3.1-1.4-3.1-3.1s1.4-3.1,3.1-3.1c1.7,0,3.1,1.4,3.1,3.1C244,111.5,242.6,112.8,240.9,112.8
	z"/>
<path class="st0" d="M257.1,111c-1.7,0-3.1-1.4-3.1-3.1s1.4-3.1,3.1-3.1s3.1,1.4,3.1,3.1C260.1,109.7,258.8,111,257.1,111z"/>
<path class="st0" d="M272.8,109.4c-1.7,0-3.1-1.4-3.1-3.1s1.4-3.1,3.1-3.1s3.1,1.4,3.1,3.1C275.9,108.1,274.5,109.4,272.8,109.4z"/>
<path class="st0" d="M289.3,108.2c-1.7,0-3.1-1.4-3.1-3.1s1.4-3.1,3.1-3.1s3.1,1.4,3.1,3.1C292.4,106.8,291,108.2,289.3,108.2z"/>
<path class="st0" d="M231.3,130.3c-1.7,0-3.1-1.4-3.1-3.1c0-1.7,1.4-3.1,3.1-3.1s3.1,1.4,3.1,3.1C234.3,129,233,130.3,231.3,130.3z"
	/>
<path class="st0" d="M247,129.2c-1.7,0-3.1-1.4-3.1-3.1s1.4-3.1,3.1-3.1c1.7,0,3.1,1.4,3.1,3.1C250.1,127.8,248.7,129.2,247,129.2z"
	/>
<path class="st0" d="M278.2,127.6c-1.7,0-3.1-1.4-3.1-3.1s1.4-3.1,3.1-3.1s3.1,1.4,3.1,3.1C281.2,126.2,279.9,127.6,278.2,127.6z"/>
<path class="st0" d="M262.8,128.4c-1.7,0-3.1-1.4-3.1-3.1s1.4-3.1,3.1-3.1s3.1,1.4,3.1,3.1C265.8,127,264.5,128.4,262.8,128.4z"/>
<path class="st0" d="M294.4,127c-1.7,0-3.1-1.4-3.1-3.1s1.4-3.1,3.1-3.1s3.1,1.4,3.1,3.1C297.4,125.7,296.1,127,294.4,127z"/>
<path class="st0" d="M234.6,146.8c-1.7,0-3.1-1.4-3.1-3.1s1.4-3.1,3.1-3.1c1.7,0,3.1,1.4,3.1,3.1
	C237.7,145.4,236.3,146.8,234.6,146.8z"/>
<path class="st0" d="M250.2,146.8c-1.7,0-3.1-1.4-3.1-3.1s1.4-3.1,3.1-3.1c1.7,0,3.1,1.4,3.1,3.1S251.9,146.8,250.2,146.8z"/>
<path class="st0" d="M265.7,146.8c-1.7,0-3.1-1.4-3.1-3.1s1.4-3.1,3.1-3.1s3.1,1.4,3.1,3.1C268.8,145.4,267.4,146.8,265.7,146.8z"/>
<path class="st0" d="M280.9,146.7c-1.7,0-3.1-1.4-3.1-3.1s1.4-3.1,3.1-3.1s3.1,1.4,3.1,3.1C284,145.4,282.6,146.7,280.9,146.7z"/>
<path class="st0" d="M296.9,146.8c-1.7,0-3.1-1.4-3.1-3.1s1.4-3.1,3.1-3.1s3.1,1.4,3.1,3.1C300,145.4,298.6,146.8,296.9,146.8z"/>
<path class="st1" d="M137.8,52.9c0-1.7,1.4-3.1,3.1-3.1c1.7,0,3.1,1.4,3.1,3.1c0,1.7-1.4,3.1-3.1,3.1
	C139.2,55.9,137.8,54.6,137.8,52.9z"/>
<path class="st1" d="M137.8,68.1c0-1.7,1.4-3.1,3.1-3.1c1.7,0,3.1,1.4,3.1,3.1s-1.4,3.1-3.1,3.1C139.1,71.2,137.8,69.8,137.8,68.1z"
	/>
<path class="st2" d="M137.8,6.2c0-1.7,1.4-3.1,3.1-3.1c1.7,0,3.1,1.4,3.1,3.1s-1.4,3.1-3.1,3.1C139.1,9.3,137.8,7.9,137.8,6.2z"/>
<path class="st2" d="M137.5,21.7c0-1.7,1.4-3.1,3.1-3.1c1.7,0,3.1,1.4,3.1,3.1s-1.4,3.1-3.1,3.1C138.9,24.8,137.5,23.4,137.5,21.7z"
	/>
<path class="st2" d="M137.5,37.5c0-1.7,1.4-3.1,3.1-3.1c1.7,0,3.1,1.4,3.1,3.1c0,1.7-1.4,3.1-3.1,3.1
	C138.9,40.5,137.5,39.1,137.5,37.5z"/>
<path class="st2" d="M118,8.8c0-1.7,1.4-3.1,3.1-3.1s3.1,1.4,3.1,3.1s-1.4,3.1-3.1,3.1C119.3,11.8,118,10.5,118,8.8z"/>
<path class="st2" d="M118.4,24.5c0-1.7,1.4-3.1,3.1-3.1s3.1,1.4,3.1,3.1s-1.4,3.1-3.1,3.1C119.7,27.5,118.4,26.2,118.4,24.5z"/>
<path class="st2" d="M119.1,40.4c0-1.7,1.4-3.1,3.1-3.1s3.1,1.4,3.1,3.1c0,1.7-1.4,3.1-3.1,3.1C120.4,43.5,119.1,42.1,119.1,40.4z"
	/>
<path class="st2" d="M120.2,56.1c0-1.7,1.4-3.1,3.1-3.1s3.1,1.4,3.1,3.1c0,1.7-1.4,3.1-3.1,3.1C121.6,59.1,120.2,57.7,120.2,56.1z"
	/>
<path class="st2" d="M121.2,71.6c0-1.7,1.4-3.1,3.1-3.1s3.1,1.4,3.1,3.1s-1.4,3.1-3.1,3.1S121.2,73.3,121.2,71.6z"/>
<path class="st2" d="M99.1,13.8c0-1.7,1.4-3.1,3.1-3.1s3.1,1.4,3.1,3.1s-1.4,3.1-3.1,3.1C100.5,16.9,99.1,15.5,99.1,13.8z"/>
<path class="st2" d="M100.2,29.9c0-1.7,1.4-3.1,3.1-3.1s3.1,1.4,3.1,3.1S105,33,103.3,33S100.2,31.6,100.2,29.9z"/>
<path class="st2" d="M101.7,46.1c0-1.7,1.4-3.1,3.1-3.1s3.1,1.4,3.1,3.1c0,1.7-1.4,3.1-3.1,3.1C103.1,49.2,101.7,47.8,101.7,46.1z"
	/>
<path class="st2" d="M103.8,62.1c0-1.7,1.4-3.1,3.1-3.1s3.1,1.4,3.1,3.1c0,1.7-1.4,3.1-3.1,3.1C105.2,65.2,103.8,63.8,103.8,62.1z"
	/>
<path class="st2" d="M106.1,78.1c0-1.7,1.4-3.1,3.1-3.1s3.1,1.4,3.1,3.1s-1.4,3.1-3.1,3.1C107.5,81.1,106.1,79.8,106.1,78.1z"/>
<path class="st2" d="M81.3,21.3c0-1.7,1.4-3.1,3.1-3.1s3.1,1.4,3.1,3.1s-1.4,3.1-3.1,3.1C82.7,24.3,81.3,23,81.3,21.3z"/>
<path class="st2" d="M64.8,30.9c0-1.7,1.4-3.1,3.1-3.1s3.1,1.4,3.1,3.1c0,1.7-1.4,3.1-3.1,3.1C66.1,33.9,64.8,32.5,64.8,30.9z"/>
<path class="st2" d="M83.4,37.7c0-1.7,1.4-3.1,3.1-3.1s3.1,1.4,3.1,3.1c0,1.7-1.4,3.1-3.1,3.1C84.7,40.8,83.4,39.4,83.4,37.7z"/>
<path class="st2" d="M85.7,54.4c0-1.7,1.4-3.1,3.1-3.1s3.1,1.4,3.1,3.1c0,1.7-1.4,3.1-3.1,3.1S85.7,56.1,85.7,54.4z"/>
<path class="st2" d="M88.9,70.8c0-1.7,1.4-3.1,3.1-3.1s3.1,1.4,3.1,3.1s-1.4,3.1-3.1,3.1S88.9,72.5,88.9,70.8z"/>
<path class="st2" d="M92.7,87.2c0-1.7,1.4-3.1,3.1-3.1s3.1,1.4,3.1,3.1s-1.4,3.1-3.1,3.1C94,90.3,92.7,88.9,92.7,87.2z"/>
<path class="st2" d="M49.7,42.5c0-1.7,1.4-3.1,3.1-3.1c1.7,0,3.1,1.4,3.1,3.1c0,1.7-1.4,3.1-3.1,3.1C51.1,45.5,49.7,44.1,49.7,42.5z
	"/>
<path class="st2" d="M67.9,47.8c0-1.7,1.4-3.1,3.1-3.1s3.1,1.4,3.1,3.1c0,1.7-1.4,3.1-3.1,3.1C69.2,50.9,67.9,49.5,67.9,47.8z"/>
<path class="st2" d="M36.3,55.9c0-1.7,1.4-3.1,3.1-3.1c1.7,0,3.1,1.4,3.1,3.1c0,1.7-1.4,3.1-3.1,3.1C37.7,58.9,36.3,57.5,36.3,55.9z
	"/>
<path class="st2" d="M54,60c0-1.7,1.4-3.1,3.1-3.1c1.7,0,3.1,1.4,3.1,3.1c0,1.7-1.4,3.1-3.1,3.1C55.4,63,54,61.6,54,60z"/>
<path class="st2" d="M71.3,64.9c0-1.7,1.4-3.1,3.1-3.1s3.1,1.4,3.1,3.1S76,68,74.3,68C72.6,68,71.3,66.7,71.3,64.9z"/>
<path class="st2" d="M75.8,81.9c0-1.7,1.4-3.1,3.1-3.1s3.1,1.4,3.1,3.1S80.6,85,78.9,85C77.1,84.9,75.8,83.5,75.8,81.9z"/>
<path class="st2" d="M58.7,77.6c0-1.7,1.4-3.1,3.1-3.1c1.7,0,3.1,1.4,3.1,3.1s-1.4,3.1-3.1,3.1C60.1,80.7,58.7,79.3,58.7,77.6z"/>
<path class="st2" d="M41.9,73.9c0-1.7,1.4-3.1,3.1-3.1c1.7,0,3.1,1.4,3.1,3.1S46.7,77,45,77C43.3,76.9,41.9,75.6,41.9,73.9z"/>
<path class="st2" d="M24.7,70.9c0-1.7,1.4-3.1,3.1-3.1s3.1,1.4,3.1,3.1S29.5,74,27.8,74C26,73.9,24.7,72.6,24.7,70.9z"/>
<path class="st2" d="M81.2,98.7c0-1.7,1.4-3.1,3.1-3.1s3.1,1.4,3.1,3.1s-1.4,3.1-3.1,3.1C82.6,101.7,81.2,100.3,81.2,98.7z"/>
<path class="st2" d="M64.7,94.9c0-1.7,1.4-3.1,3.1-3.1s3.1,1.4,3.1,3.1S69.5,98,67.8,98S64.7,96.6,64.7,94.9z"/>
<path class="st2" d="M48.1,92c0-1.7,1.4-3.1,3.1-3.1c1.7,0,3.1,1.4,3.1,3.1s-1.4,3.1-3.1,3.1S48.1,93.7,48.1,92z"/>
<path class="st2" d="M31.9,89.4c0-1.7,1.4-3.1,3.1-3.1s3.1,1.4,3.1,3.1s-1.4,3.1-3.1,3.1C33.3,92.5,31.9,91.1,31.9,89.4z"/>
<path class="st2" d="M15.1,87.3c0-1.7,1.4-3.1,3.1-3.1s3.1,1.4,3.1,3.1s-1.4,3.1-3.1,3.1C16.4,90.4,15.1,89,15.1,87.3z"/>
<path class="st2" d="M72.1,112.1c0-1.7,1.4-3.1,3.1-3.1s3.1,1.4,3.1,3.1s-1.4,3.1-3.1,3.1S72.1,113.8,72.1,112.1z"/>
<path class="st2" d="M56,109.8c0-1.7,1.4-3.1,3.1-3.1c1.7,0,3.1,1.4,3.1,3.1s-1.4,3.1-3.1,3.1C57.4,112.8,56,111.5,56,109.8z"/>
<path class="st2" d="M39.9,108c0-1.7,1.4-3.1,3.1-3.1c1.7,0,3.1,1.4,3.1,3.1s-1.4,3.1-3.1,3.1C41.2,111,39.9,109.7,39.9,108z"/>
<path class="st2" d="M24.1,106.4c0-1.7,1.4-3.1,3.1-3.1s3.1,1.4,3.1,3.1s-1.4,3.1-3.1,3.1C25.5,109.4,24.1,108.1,24.1,106.4z"/>
<path class="st2" d="M7.6,105.1c0-1.7,1.4-3.1,3.1-3.1s3.1,1.4,3.1,3.1s-1.4,3.1-3.1,3.1S7.6,106.8,7.6,105.1z"/>
<path class="st2" d="M65.7,127.3c0-1.7,1.4-3.1,3.1-3.1s3.1,1.4,3.1,3.1s-1.4,3.1-3.1,3.1C67.1,130.3,65.7,129,65.7,127.3z"/>
<path class="st2" d="M49.9,126.2c0-1.7,1.4-3.1,3.1-3.1c1.7,0,3.1,1.4,3.1,3.1s-1.4,3.1-3.1,3.1C51.3,129.2,49.9,127.8,49.9,126.2z"
	/>
<path class="st2" d="M34.2,125.3c0-1.7,1.4-3.1,3.1-3.1c1.7,0,3.1,1.4,3.1,3.1s-1.4,3.1-3.1,3.1C35.5,128.4,34.2,127,34.2,125.3z"/>
<path class="st2" d="M18.8,124.5c0-1.7,1.4-3.1,3.1-3.1s3.1,1.4,3.1,3.1s-1.4,3.1-3.1,3.1C20.1,127.6,18.8,126.2,18.8,124.5z"/>
<path class="st2" d="M2.6,124c0-1.7,1.4-3.1,3.1-3.1s3.1,1.4,3.1,3.1s-1.4,3.1-3.1,3.1C3.9,127,2.6,125.7,2.6,124z"/>
<path class="st2" d="M62.3,143.8c0-1.7,1.4-3.1,3.1-3.1c1.7,0,3.1,1.4,3.1,3.1s-1.4,3.1-3.1,3.1C63.7,146.8,62.3,145.4,62.3,143.8z"
	/>
<path class="st2" d="M46.7,143.8c0-1.7,1.4-3.1,3.1-3.1c1.7,0,3.1,1.4,3.1,3.1s-1.4,3.1-3.1,3.1C48.1,146.8,46.7,145.4,46.7,143.8z"
	/>
<path class="st2" d="M31.2,143.7c0-1.7,1.4-3.1,3.1-3.1c1.7,0,3.1,1.4,3.1,3.1s-1.4,3.1-3.1,3.1C32.6,146.8,31.2,145.4,31.2,143.7z"
	/>
<path class="st2" d="M16,143.7c0-1.7,1.4-3.1,3.1-3.1s3.1,1.4,3.1,3.1s-1.4,3.1-3.1,3.1C17.4,146.7,16,145.4,16,143.7z"/>
<path class="st2" d="M0,143.7c0-1.7,1.4-3.1,3.1-3.1s3.1,1.4,3.1,3.1s-1.4,3.1-3.1,3.1S0,145.4,0,143.7z"/>
<path class="st0" d="M159.2,9.3c-1.7,0-3.1-1.4-3.1-3.1s1.4-3.1,3.1-3.1c1.7,0,3.1,1.4,3.1,3.1C162.2,7.9,160.9,9.3,159.2,9.3z"/>
<path class="st0" d="M159.5,24.8c-1.7,0-3.1-1.4-3.1-3.1s1.4-3.1,3.1-3.1c1.7,0,3.1,1.4,3.1,3.1C162.5,23.4,161.2,24.8,159.5,24.8z"
	/>
<path class="st0" d="M159.5,40.5c-1.7,0-3.1-1.4-3.1-3.1c0-1.7,1.4-3.1,3.1-3.1c1.7,0,3.1,1.4,3.1,3.1
	C162.5,39.1,161.2,40.5,159.5,40.5z"/>
<path class="st0" d="M159.1,55.9c-1.7,0-3.1-1.4-3.1-3.1c0-1.7,1.4-3.1,3.1-3.1c1.7,0,3.1,1.4,3.1,3.1
	C162.2,54.6,160.8,55.9,159.1,55.9z"/>
<path class="st0" d="M159.2,71.2c-1.7,0-3.1-1.4-3.1-3.1s1.4-3.1,3.1-3.1s3.1,1.4,3.1,3.1C162.3,69.8,160.9,71.2,159.2,71.2z"/>
<path class="st0" d="M179,11.8c-1.7,0-3.1-1.4-3.1-3.1s1.4-3.1,3.1-3.1c1.7,0,3.1,1.4,3.1,3.1S180.7,11.8,179,11.8z"/>
<path class="st0" d="M178.6,27.5c-1.7,0-3.1-1.4-3.1-3.1s1.4-3.1,3.1-3.1c1.7,0,3.1,1.4,3.1,3.1S180.3,27.5,178.6,27.5z"/>
<path class="st0" d="M177.9,43.5c-1.7,0-3.1-1.4-3.1-3.1c0-1.7,1.4-3.1,3.1-3.1c1.7,0,3.1,1.4,3.1,3.1
	C180.9,42.1,179.6,43.5,177.9,43.5z"/>
<path class="st0" d="M176.8,59.1c-1.7,0-3.1-1.4-3.1-3.1c0-1.7,1.4-3.1,3.1-3.1s3.1,1.4,3.1,3.1C179.8,57.7,178.4,59.1,176.8,59.1z"
	/>
<path class="st0" d="M175.7,74.7c-1.7,0-3.1-1.4-3.1-3.1s1.4-3.1,3.1-3.1c1.7,0,3.1,1.4,3.1,3.1C178.8,73.3,177.4,74.7,175.7,74.7z"
	/>
<path class="st0" d="M197.9,16.9c-1.7,0-3.1-1.4-3.1-3.1s1.4-3.1,3.1-3.1c1.7,0,3.1,1.4,3.1,3.1S199.5,16.9,197.9,16.9z"/>
<path class="st0" d="M196.7,33c-1.7,0-3.1-1.4-3.1-3.1s1.4-3.1,3.1-3.1c1.7,0,3.1,1.4,3.1,3.1S198.4,33,196.7,33z"/>
<path class="st0" d="M195.2,49.2c-1.7,0-3.1-1.4-3.1-3.1c0-1.7,1.4-3.1,3.1-3.1s3.1,1.4,3.1,3.1S196.9,49.2,195.2,49.2z"/>
<path class="st0" d="M193.2,65.2c-1.7,0-3.1-1.4-3.1-3.1c0-1.7,1.4-3.1,3.1-3.1c1.7,0,3.1,1.4,3.1,3.1
	C196.2,63.8,194.9,65.2,193.2,65.2z"/>
<path class="st0" d="M190.8,81.1c-1.7,0-3.1-1.4-3.1-3.1s1.4-3.1,3.1-3.1c1.7,0,3.1,1.4,3.1,3.1S192.5,81.1,190.8,81.1z"/>
<path class="st0" d="M215.7,24.3c-1.7,0-3.1-1.4-3.1-3.1s1.4-3.1,3.1-3.1c1.7,0,3.1,1.4,3.1,3.1S217.3,24.3,215.7,24.3z"/>
<path class="st0" d="M232.2,33.9c-1.7,0-3.1-1.4-3.1-3.1c0-1.7,1.4-3.1,3.1-3.1s3.1,1.4,3.1,3.1C235.2,32.5,233.9,33.9,232.2,33.9z"
	/>
<path class="st0" d="M213.6,40.8c-1.7,0-3.1-1.4-3.1-3.1c0-1.7,1.4-3.1,3.1-3.1s3.1,1.4,3.1,3.1C216.6,39.4,215.3,40.8,213.6,40.8z"
	/>
<path class="st0" d="M211.2,57.5c-1.7,0-3.1-1.4-3.1-3.1c0-1.7,1.4-3.1,3.1-3.1s3.1,1.4,3.1,3.1S212.9,57.5,211.2,57.5z"/>
<path class="st0" d="M208,73.9c-1.7,0-3.1-1.4-3.1-3.1s1.4-3.1,3.1-3.1c1.7,0,3.1,1.4,3.1,3.1S209.7,73.9,208,73.9z"/>
<path class="st0" d="M204.3,90.3c-1.7,0-3.1-1.4-3.1-3.1s1.4-3.1,3.1-3.1c1.7,0,3.1,1.4,3.1,3.1C207.3,88.9,206,90.3,204.3,90.3z"/>
<path class="st0" d="M247.2,45.5c-1.7,0-3.1-1.4-3.1-3.1c0-1.7,1.4-3.1,3.1-3.1c1.7,0,3.1,1.4,3.1,3.1S248.9,45.5,247.2,45.5z"/>
<path class="st0" d="M229.1,50.9c-1.7,0-3.1-1.4-3.1-3.1c0-1.7,1.4-3.1,3.1-3.1s3.1,1.4,3.1,3.1C232.2,49.5,230.8,50.9,229.1,50.9z"
	/>
<path class="st0" d="M260.6,58.9c-1.7,0-3.1-1.4-3.1-3.1c0-1.7,1.4-3.1,3.1-3.1s3.1,1.4,3.1,3.1S262.4,58.9,260.6,58.9z"/>
<path class="st0" d="M242.9,63c-1.7,0-3.1-1.4-3.1-3.1c0-1.7,1.4-3.1,3.1-3.1s3.1,1.4,3.1,3.1S244.6,63,242.9,63z"/>
<path class="st0" d="M225.7,68c-1.7,0-3.1-1.4-3.1-3.1s1.4-3.1,3.1-3.1c1.7,0,3.1,1.4,3.1,3.1C228.7,66.7,227.4,68,225.7,68z"/>
<path class="st0" d="M221.2,84.9c-1.7,0-3.1-1.4-3.1-3.1s1.4-3.1,3.1-3.1c1.7,0,3.1,1.4,3.1,3.1C224.2,83.5,222.9,84.9,221.2,84.9z"
	/>
<path class="st0" d="M238.3,80.7c-1.7,0-3.1-1.4-3.1-3.1s1.4-3.1,3.1-3.1s3.1,1.4,3.1,3.1C241.3,79.3,239.9,80.7,238.3,80.7z"/>
<path class="st0" d="M255,76.9c-1.7,0-3.1-1.4-3.1-3.1s1.4-3.1,3.1-3.1s3.1,1.4,3.1,3.1C258.1,75.6,256.7,76.9,255,76.9z"/>
<path class="st0" d="M272.3,73.9c-1.7,0-3.1-1.4-3.1-3.1s1.4-3.1,3.1-3.1s3.1,1.4,3.1,3.1C275.3,72.6,274,73.9,272.3,73.9z"/>
<path class="st0" d="M215.7,101.7c-1.7,0-3.1-1.4-3.1-3.1s1.4-3.1,3.1-3.1c1.7,0,3.1,1.4,3.1,3.1
	C218.8,100.3,217.4,101.7,215.7,101.7z"/>
<path class="st0" d="M232.2,98c-1.7,0-3.1-1.4-3.1-3.1s1.4-3.1,3.1-3.1c1.7,0,3.1,1.4,3.1,3.1S233.9,98,232.2,98z"/>
<path class="st0" d="M248.8,95.1c-1.7,0-3.1-1.4-3.1-3.1s1.4-3.1,3.1-3.1s3.1,1.4,3.1,3.1C251.9,93.7,250.5,95.1,248.8,95.1z"/>
<path class="st0" d="M265,92.5c-1.7,0-3.1-1.4-3.1-3.1s1.4-3.1,3.1-3.1s3.1,1.4,3.1,3.1S266.7,92.5,265,92.5z"/>
<path class="st0" d="M281.9,90.4c-1.7,0-3.1-1.4-3.1-3.1s1.4-3.1,3.1-3.1s3.1,1.4,3.1,3.1C284.9,89,283.6,90.4,281.9,90.4z"/>
<path class="st0" d="M224.8,115.2c-1.7,0-3.1-1.4-3.1-3.1s1.4-3.1,3.1-3.1s3.1,1.4,3.1,3.1C227.9,113.8,226.5,115.2,224.8,115.2z"/>
<path class="st0" d="M240.9,112.8c-1.7,0-3.1-1.4-3.1-3.1s1.4-3.1,3.1-3.1c1.7,0,3.1,1.4,3.1,3.1C244,111.5,242.6,112.8,240.9,112.8
	z"/>
<path class="st0" d="M257.1,111c-1.7,0-3.1-1.4-3.1-3.1s1.4-3.1,3.1-3.1s3.1,1.4,3.1,3.1C260.1,109.7,258.8,111,257.1,111z"/>
<path class="st0" d="M272.8,109.4c-1.7,0-3.1-1.4-3.1-3.1s1.4-3.1,3.1-3.1s3.1,1.4,3.1,3.1C275.9,108.1,274.5,109.4,272.8,109.4z"/>
<path class="st0" d="M289.3,108.2c-1.7,0-3.1-1.4-3.1-3.1s1.4-3.1,3.1-3.1s3.1,1.4,3.1,3.1C292.4,106.8,291,108.2,289.3,108.2z"/>
<path class="st0" d="M231.3,130.3c-1.7,0-3.1-1.4-3.1-3.1c0-1.7,1.4-3.1,3.1-3.1s3.1,1.4,3.1,3.1C234.3,129,233,130.3,231.3,130.3z"
	/>
<path class="st0" d="M247,129.2c-1.7,0-3.1-1.4-3.1-3.1s1.4-3.1,3.1-3.1c1.7,0,3.1,1.4,3.1,3.1C250.1,127.8,248.7,129.2,247,129.2z"
	/>
<path class="st0" d="M278.2,127.6c-1.7,0-3.1-1.4-3.1-3.1s1.4-3.1,3.1-3.1s3.1,1.4,3.1,3.1C281.2,126.2,279.9,127.6,278.2,127.6z"/>
<path class="st0" d="M262.8,128.4c-1.7,0-3.1-1.4-3.1-3.1s1.4-3.1,3.1-3.1s3.1,1.4,3.1,3.1C265.8,127,264.5,128.4,262.8,128.4z"/>
<path class="st0" d="M294.4,127c-1.7,0-3.1-1.4-3.1-3.1s1.4-3.1,3.1-3.1s3.1,1.4,3.1,3.1C297.4,125.7,296.1,127,294.4,127z"/>
<path class="st0" d="M234.6,146.8c-1.7,0-3.1-1.4-3.1-3.1s1.4-3.1,3.1-3.1c1.7,0,3.1,1.4,3.1,3.1
	C237.7,145.4,236.3,146.8,234.6,146.8z"/>
<path class="st0" d="M250.2,146.8c-1.7,0-3.1-1.4-3.1-3.1s1.4-3.1,3.1-3.1c1.7,0,3.1,1.4,3.1,3.1S251.9,146.8,250.2,146.8z"/>
<path class="st0" d="M265.7,146.8c-1.7,0-3.1-1.4-3.1-3.1s1.4-3.1,3.1-3.1s3.1,1.4,3.1,3.1C268.8,145.4,267.4,146.8,265.7,146.8z"/>
<path class="st0" d="M280.9,146.7c-1.7,0-3.1-1.4-3.1-3.1s1.4-3.1,3.1-3.1s3.1,1.4,3.1,3.1C284,145.4,282.6,146.7,280.9,146.7z"/>
<path class="st0" d="M296.9,146.8c-1.7,0-3.1-1.4-3.1-3.1s1.4-3.1,3.1-3.1s3.1,1.4,3.1,3.1C300,145.4,298.6,146.8,296.9,146.8z"/>
<path class="st1" d="M137.8,52.9c0-1.7,1.4-3.1,3.1-3.1c1.7,0,3.1,1.4,3.1,3.1c0,1.7-1.4,3.1-3.1,3.1
	C139.2,55.9,137.8,54.6,137.8,52.9z"/>
<path class="st1" d="M137.8,68.1c0-1.7,1.4-3.1,3.1-3.1c1.7,0,3.1,1.4,3.1,3.1s-1.4,3.1-3.1,3.1C139.1,71.2,137.8,69.8,137.8,68.1z"
	/>
<path class="st2" d="M137.8,6.2c0-1.7,1.4-3.1,3.1-3.1c1.7,0,3.1,1.4,3.1,3.1s-1.4,3.1-3.1,3.1C139.1,9.3,137.8,7.9,137.8,6.2z"/>
<path class="st2" d="M137.5,21.7c0-1.7,1.4-3.1,3.1-3.1c1.7,0,3.1,1.4,3.1,3.1s-1.4,3.1-3.1,3.1C138.9,24.8,137.5,23.4,137.5,21.7z"
	/>
<path class="st1" d="M137.5,37.5c0-1.7,1.4-3.1,3.1-3.1c1.7,0,3.1,1.4,3.1,3.1c0,1.7-1.4,3.1-3.1,3.1
	C138.9,40.5,137.5,39.1,137.5,37.5z"/>
<path class="st2" d="M118,8.8c0-1.7,1.4-3.1,3.1-3.1s3.1,1.4,3.1,3.1s-1.4,3.1-3.1,3.1C119.3,11.8,118,10.5,118,8.8z"/>
<path class="st2" d="M118.4,24.5c0-1.7,1.4-3.1,3.1-3.1s3.1,1.4,3.1,3.1s-1.4,3.1-3.1,3.1C119.7,27.5,118.4,26.2,118.4,24.5z"/>
<path class="st2" d="M119.1,40.4c0-1.7,1.4-3.1,3.1-3.1s3.1,1.4,3.1,3.1c0,1.7-1.4,3.1-3.1,3.1C120.4,43.5,119.1,42.1,119.1,40.4z"
	/>
<path class="st2" d="M120.2,56.1c0-1.7,1.4-3.1,3.1-3.1s3.1,1.4,3.1,3.1c0,1.7-1.4,3.1-3.1,3.1C121.6,59.1,120.2,57.7,120.2,56.1z"
	/>
<path class="st2" d="M121.2,71.6c0-1.7,1.4-3.1,3.1-3.1s3.1,1.4,3.1,3.1s-1.4,3.1-3.1,3.1S121.2,73.3,121.2,71.6z"/>
<path class="st2" d="M99.1,13.8c0-1.7,1.4-3.1,3.1-3.1s3.1,1.4,3.1,3.1s-1.4,3.1-3.1,3.1C100.5,16.9,99.1,15.5,99.1,13.8z"/>
<path class="st2" d="M100.2,29.9c0-1.7,1.4-3.1,3.1-3.1s3.1,1.4,3.1,3.1S105,33,103.3,33S100.2,31.6,100.2,29.9z"/>
<path class="st2" d="M101.7,46.1c0-1.7,1.4-3.1,3.1-3.1s3.1,1.4,3.1,3.1c0,1.7-1.4,3.1-3.1,3.1C103.1,49.2,101.7,47.8,101.7,46.1z"
	/>
<path class="st2" d="M103.8,62.1c0-1.7,1.4-3.1,3.1-3.1s3.1,1.4,3.1,3.1c0,1.7-1.4,3.1-3.1,3.1C105.2,65.2,103.8,63.8,103.8,62.1z"
	/>
<path class="st2" d="M106.1,78.1c0-1.7,1.4-3.1,3.1-3.1s3.1,1.4,3.1,3.1s-1.4,3.1-3.1,3.1C107.5,81.1,106.1,79.8,106.1,78.1z"/>
<path class="st2" d="M81.3,21.3c0-1.7,1.4-3.1,3.1-3.1s3.1,1.4,3.1,3.1s-1.4,3.1-3.1,3.1C82.7,24.3,81.3,23,81.3,21.3z"/>
<path class="st2" d="M64.8,30.9c0-1.7,1.4-3.1,3.1-3.1s3.1,1.4,3.1,3.1c0,1.7-1.4,3.1-3.1,3.1C66.1,33.9,64.8,32.5,64.8,30.9z"/>
<path class="st2" d="M83.4,37.7c0-1.7,1.4-3.1,3.1-3.1s3.1,1.4,3.1,3.1c0,1.7-1.4,3.1-3.1,3.1C84.7,40.8,83.4,39.4,83.4,37.7z"/>
<path class="st2" d="M85.7,54.4c0-1.7,1.4-3.1,3.1-3.1s3.1,1.4,3.1,3.1c0,1.7-1.4,3.1-3.1,3.1S85.7,56.1,85.7,54.4z"/>
<path class="st2" d="M88.9,70.8c0-1.7,1.4-3.1,3.1-3.1s3.1,1.4,3.1,3.1s-1.4,3.1-3.1,3.1S88.9,72.5,88.9,70.8z"/>
<path class="st2" d="M92.7,87.2c0-1.7,1.4-3.1,3.1-3.1s3.1,1.4,3.1,3.1s-1.4,3.1-3.1,3.1C94,90.3,92.7,88.9,92.7,87.2z"/>
<path class="st2" d="M49.7,42.5c0-1.7,1.4-3.1,3.1-3.1c1.7,0,3.1,1.4,3.1,3.1c0,1.7-1.4,3.1-3.1,3.1C51.1,45.5,49.7,44.1,49.7,42.5z
	"/>
<path class="st2" d="M67.9,47.8c0-1.7,1.4-3.1,3.1-3.1s3.1,1.4,3.1,3.1c0,1.7-1.4,3.1-3.1,3.1C69.2,50.9,67.9,49.5,67.9,47.8z"/>
<path class="st2" d="M36.3,55.9c0-1.7,1.4-3.1,3.1-3.1c1.7,0,3.1,1.4,3.1,3.1c0,1.7-1.4,3.1-3.1,3.1C37.7,58.9,36.3,57.5,36.3,55.9z
	"/>
<path class="st2" d="M54,60c0-1.7,1.4-3.1,3.1-3.1c1.7,0,3.1,1.4,3.1,3.1c0,1.7-1.4,3.1-3.1,3.1C55.4,63,54,61.6,54,60z"/>
<path class="st2" d="M71.3,64.9c0-1.7,1.4-3.1,3.1-3.1s3.1,1.4,3.1,3.1S76,68,74.3,68C72.6,68,71.3,66.7,71.3,64.9z"/>
<path class="st2" d="M75.8,81.9c0-1.7,1.4-3.1,3.1-3.1s3.1,1.4,3.1,3.1S80.6,85,78.9,85C77.1,84.9,75.8,83.5,75.8,81.9z"/>
<path class="st2" d="M58.7,77.6c0-1.7,1.4-3.1,3.1-3.1c1.7,0,3.1,1.4,3.1,3.1s-1.4,3.1-3.1,3.1C60.1,80.7,58.7,79.3,58.7,77.6z"/>
<path class="st2" d="M41.9,73.9c0-1.7,1.4-3.1,3.1-3.1c1.7,0,3.1,1.4,3.1,3.1S46.7,77,45,77C43.3,76.9,41.9,75.6,41.9,73.9z"/>
<path class="st2" d="M24.7,70.9c0-1.7,1.4-3.1,3.1-3.1s3.1,1.4,3.1,3.1S29.5,74,27.8,74C26,73.9,24.7,72.6,24.7,70.9z"/>
<path class="st2" d="M81.2,98.7c0-1.7,1.4-3.1,3.1-3.1s3.1,1.4,3.1,3.1s-1.4,3.1-3.1,3.1C82.6,101.7,81.2,100.3,81.2,98.7z"/>
<path class="st2" d="M64.7,94.9c0-1.7,1.4-3.1,3.1-3.1s3.1,1.4,3.1,3.1S69.5,98,67.8,98S64.7,96.6,64.7,94.9z"/>
<path class="st2" d="M48.1,92c0-1.7,1.4-3.1,3.1-3.1c1.7,0,3.1,1.4,3.1,3.1s-1.4,3.1-3.1,3.1S48.1,93.7,48.1,92z"/>
<path class="st2" d="M31.9,89.4c0-1.7,1.4-3.1,3.1-3.1s3.1,1.4,3.1,3.1s-1.4,3.1-3.1,3.1C33.3,92.5,31.9,91.1,31.9,89.4z"/>
<path class="st2" d="M15.1,87.3c0-1.7,1.4-3.1,3.1-3.1s3.1,1.4,3.1,3.1s-1.4,3.1-3.1,3.1C16.4,90.4,15.1,89,15.1,87.3z"/>
<path class="st2" d="M72.1,112.1c0-1.7,1.4-3.1,3.1-3.1s3.1,1.4,3.1,3.1s-1.4,3.1-3.1,3.1S72.1,113.8,72.1,112.1z"/>
<path class="st2" d="M56,109.8c0-1.7,1.4-3.1,3.1-3.1c1.7,0,3.1,1.4,3.1,3.1s-1.4,3.1-3.1,3.1C57.4,112.8,56,111.5,56,109.8z"/>
<path class="st2" d="M39.9,108c0-1.7,1.4-3.1,3.1-3.1c1.7,0,3.1,1.4,3.1,3.1s-1.4,3.1-3.1,3.1C41.2,111,39.9,109.7,39.9,108z"/>
<path class="st2" d="M24.1,106.4c0-1.7,1.4-3.1,3.1-3.1s3.1,1.4,3.1,3.1s-1.4,3.1-3.1,3.1C25.5,109.4,24.1,108.1,24.1,106.4z"/>
<path class="st2" d="M7.6,105.1c0-1.7,1.4-3.1,3.1-3.1s3.1,1.4,3.1,3.1s-1.4,3.1-3.1,3.1S7.6,106.8,7.6,105.1z"/>
<path class="st2" d="M65.7,127.3c0-1.7,1.4-3.1,3.1-3.1s3.1,1.4,3.1,3.1s-1.4,3.1-3.1,3.1C67.1,130.3,65.7,129,65.7,127.3z"/>
<path class="st2" d="M49.9,126.2c0-1.7,1.4-3.1,3.1-3.1c1.7,0,3.1,1.4,3.1,3.1s-1.4,3.1-3.1,3.1C51.3,129.2,49.9,127.8,49.9,126.2z"
	/>
<path class="st2" d="M34.2,125.3c0-1.7,1.4-3.1,3.1-3.1c1.7,0,3.1,1.4,3.1,3.1s-1.4,3.1-3.1,3.1C35.5,128.4,34.2,127,34.2,125.3z"/>
<path class="st2" d="M18.8,124.5c0-1.7,1.4-3.1,3.1-3.1s3.1,1.4,3.1,3.1s-1.4,3.1-3.1,3.1C20.1,127.6,18.8,126.2,18.8,124.5z"/>
<path class="st2" d="M2.6,124c0-1.7,1.4-3.1,3.1-3.1s3.1,1.4,3.1,3.1s-1.4,3.1-3.1,3.1C3.9,127,2.6,125.7,2.6,124z"/>
<path class="st2" d="M62.3,143.8c0-1.7,1.4-3.1,3.1-3.1c1.7,0,3.1,1.4,3.1,3.1s-1.4,3.1-3.1,3.1C63.7,146.8,62.3,145.4,62.3,143.8z"
	/>
<path class="st2" d="M46.7,143.8c0-1.7,1.4-3.1,3.1-3.1c1.7,0,3.1,1.4,3.1,3.1s-1.4,3.1-3.1,3.1C48.1,146.8,46.7,145.4,46.7,143.8z"
	/>
<path class="st2" d="M31.2,143.7c0-1.7,1.4-3.1,3.1-3.1c1.7,0,3.1,1.4,3.1,3.1s-1.4,3.1-3.1,3.1C32.6,146.8,31.2,145.4,31.2,143.7z"
	/>
<path class="st2" d="M16,143.7c0-1.7,1.4-3.1,3.1-3.1s3.1,1.4,3.1,3.1s-1.4,3.1-3.1,3.1C17.4,146.7,16,145.4,16,143.7z"/>
<path class="st2" d="M0,143.7c0-1.7,1.4-3.1,3.1-3.1s3.1,1.4,3.1,3.1s-1.4,3.1-3.1,3.1S0,145.4,0,143.7z"/>
</svg>
