<?xml version="1.0" encoding="utf-8"?>
<!-- Generator: Adobe Illustrator 27.8.1, SVG Export Plug-In . SVG Version: 6.00 Build 0)  -->
<svg version="1.1" id="Layer_2_00000149350478408259258660000012552535515616495518_"
     xmlns="http://www.w3.org/2000/svg" xmlns:xlink="http://www.w3.org/1999/xlink" x="0px" y="0px" viewBox="0 0 24 24"
     style="enable-background:new 0 0 24 24;" xml:space="preserve">
<style type="text/css">
	.st0{fill:none;stroke:#000000;stroke-width:1.5;stroke-linecap:round;stroke-miterlimit:10;}
	.st1{fill:#CADFEF;}
	.st2{fill:none;stroke:#000000;stroke-width:1.5;stroke-linejoin:round;stroke-miterlimit:10;}
	.st3{fill:none;stroke:#000000;stroke-width:1.5;stroke-miterlimit:10;}
	.st4{fill:#8EABC1;}
</style>
    <g>
		<line class="st0" x1="8.7" y1="3.4" x2="15.3" y2="3.4"/>
        <path class="st1" d="M12,3.4v4.4c0,0,0.1-0.2,1.2-0.2s1.2,0.2,1.2,0.2V3.4H12z"/>
        <path class="st2" d="M9.6,7.8V3.4h4.8v4.4c0,0-0.2-0.2-2.4-0.2S9.6,7.8,9.6,7.8z"/>
        <line class="st0" x1="12" y1="3.3" x2="12" y2="0.8"/>
        <path class="st1" d="M5.9,16.7c0-5.1,3.5-9.1,7.9-9.1s7.9,4.1,7.9,9.1"/>
        <path class="st3" d="M2.4,16.7c0-5.1,4.3-9.1,9.6-9.1s9.6,4.1,9.6,9.1"/>
        <line class="st0" x1="0.8" y1="16.7" x2="23.2" y2="16.7"/>
        <line class="st0" x1="0.8" y1="23.2" x2="23.2" y2="23.2"/>
        <rect class="st1" x="1.7" y="16.7" width="20.7" height="6.6"/>
        <rect class="st4" x="8.4" y="16.7" width="14" height="6.6"/>
        <rect class="st3" x="1.7" y="16.7" width="20.7" height="6.6"/>
        <line class="st0" x1="12" y1="20.6" x2="12" y2="19.3"/>
        <line class="st0" x1="8.4" y1="20.6" x2="8.4" y2="19.3"/>
        <line class="st0" x1="5.2" y1="20.6" x2="5.2" y2="19.3"/>
        <line class="st0" x1="2.4" y1="20.6" x2="2.4" y2="19.3"/>
        <line class="st0" x1="15.6" y1="20.6" x2="15.6" y2="19.3"/>
        <line class="st0" x1="18.8" y1="20.6" x2="18.8" y2="19.3"/>
        <line class="st0" x1="21.6" y1="20.6" x2="21.6" y2="19.3"/>
</g>
</svg>
