<?xml version="1.0" encoding="utf-8"?>
<!-- Generator: Adobe Illustrator 27.8.1, SVG Export Plug-In . SVG Version: 6.00 Build 0)  -->
<svg version="1.1" id="Layer_1" xmlns="http://www.w3.org/2000/svg" xmlns:xlink="http://www.w3.org/1999/xlink" x="0px" y="0px"
	 viewBox="0 0 24 24" style="enable-background:new 0 0 24 24;" xml:space="preserve">
<style type="text/css">
	.st0{fill:#FFFFFF;stroke:#86929D;stroke-width:1.5;stroke-linejoin:round;stroke-miterlimit:10;}
</style>
<path class="st0" d="M21.8,3.4v5.8H2.2V3.4H21.8z"/>
<g>
	<circle class="st0" cx="8.2" cy="2.8" r="2"/>
	<path class="st0" d="M5,13.4V7.8C5,6.3,6.2,5,7.8,5h0.9c1.5,0,2.8,1.2,2.8,2.8v5.6C11.4,14.9,5,14.9,5,13.4z"/>
</g>
<path class="st0" d="M1.5,9.3h21v6.3h-21V9.3z"/>
<g>
	<circle class="st0" cx="14.2" cy="4.1" r="3.3"/>
	<path class="st0" d="M8.9,16.4v-4.7c0-2.2,2.1-4,4.6-4h1.4c2.5,0,4.6,1.8,4.6,4v4.7C19.6,18.6,8.9,18.6,8.9,16.4z"/>
</g>
<path class="st0" d="M23.2,15.6v7.7H0.8v-7.7L23.2,15.6z"/>
</svg>
