<?xml version="1.0" encoding="utf-8"?>
<!-- Generator: Adobe Illustrator 27.8.1, SVG Export Plug-In . SVG Version: 6.00 Build 0)  -->
<svg version="1.1" id="Layer_2_00000065793646308439844940000012363149366140360610_"
	 xmlns="http://www.w3.org/2000/svg" xmlns:xlink="http://www.w3.org/1999/xlink" x="0px" y="0px" viewBox="0 0 24 24"
	 style="enable-background:new 0 0 24 24;" xml:space="preserve">
<style type="text/css">
	.st0{fill:#CADFEF;}
	.st1{fill:#8EABC1;}
	.st2{fill:none;stroke:#000000;stroke-width:1.5;stroke-miterlimit:10;}
</style>
<g>
	<path class="st0" d="M22,10.4h-0.3c-0.6,0-1.2-0.5-1.4-1.1V9.2c-0.2-0.6,0-1.3,0.5-1.7L21,7.4c0.6-0.5,0.7-1.2,0.3-1.8L20.9,5
		c-0.4-0.6-1.2-0.7-1.7-0.3L19,4.8c-0.5,0.4-1.2,0.4-1.7,0l-0.1-0.1c-0.5-0.4-0.7-1.1-0.6-1.7l0.1-0.3C16.8,2,16.5,1.3,15.8,1
		l-0.6-0.2c-0.6-0.2-1.4,0.1-1.6,0.8l-0.1,0.2c-0.2,0.6-0.8,1.1-1.4,1.1H12c-0.6,0-1.2-0.5-1.4-1.1l-0.1-0.2c-0.2-0.7-1-1.1-1.6-0.8
		L8.2,1c-0.7,0.2-1,1-0.8,1.7L7.5,3c0.2,0.6-0.1,1.3-0.6,1.7H6.8c-0.5,0.4-1.2,0.4-1.7,0L4.9,4.6C4.3,4.2,3.6,4.4,3.1,5L2.7,5.5
		C2.3,6.1,2.5,6.9,3,7.4l0.2,0.2C3.7,8,3.9,8.7,3.7,9.3v0.1c-0.2,0.6-0.8,1.1-1.4,1.1H2c-0.7,0-1.2,0.6-1.2,1.3v0.6
		c0,0.6,0.6,1.3,1.2,1.3h0.3c0.6,0,1.2,0.5,1.4,1.1v0.1c0.2,0.6,0,1.3-0.5,1.7l-0.2,0c-0.6,0.5-0.7,1.2-0.3,1.8L3.1,19
		c0.4,0.6,1.2,0.7,1.7,0.3L5,19.2c0.5-0.4,1.2-0.4,1.7,0l0.1,0.1c0.5,0.4,0.7,1.1,0.6,1.7l-0.1,0.3C7.2,22,7.5,22.7,8.2,23l0.6,0.2
		c0.6,0.2,1.4-0.1,1.6-0.8l0.1-0.2c0.2-0.6,0.8-1.1,1.4-1.1H12c0.6,0,1.2,0.5,1.4,1.1l0.1,0.2c0.2,0.7,1,1.1,1.6,0.8l0.6-0.2
		c0.7-0.2,1-1,0.8-1.7l0-0.3c-0.2-0.6,0.1-1.3,0.6-1.7l0.1-0.1c0.5-0.4,1.2-0.4,1.7,0l0.2,0.1c0.6,0.4,1.3,0.3,1.7-0.3l0.4-0.6
		c0.4-0.6,0.3-1.4-0.3-1.8l-0.2-0.2c-0.5-0.4-0.7-1.1-0.5-1.7v-0.1c0.2-0.6,0.8-1.1,1.4-1.1H22c0.7,0,1.2-0.6,1.2-1.3v-0.6
		C23.2,11.1,22.7,10.4,22,10.4z M12,17.7c-3,0-5.5-2.5-5.5-5.7S9,6.4,12,6.3c3,0,5.5,2.5,5.5,5.7S15,17.6,12,17.7z"/>
	<path class="st1" d="M17.5,12c0,3.2-2.5,5.6-5.5,5.7c-3,0-5.5-2.5-5.5-5.7H0.7v0.3c0,0.6,0.6,1.3,1.2,1.3h0.3
		c0.6,0,1.2,0.5,1.4,1.1v0.1c0.2,0.6,0,1.3-0.5,1.7L3,16.6c-0.6,0.5-0.7,1.2-0.3,1.8L3.1,19c0.4,0.6,1.2,0.7,1.7,0.3L5,19.2
		c0.5-0.4,1.2-0.4,1.7,0l0.1,0.1c0.5,0.4,0.7,1.1,0.6,1.7l-0.1,0.3C7.2,22,7.5,22.7,8.2,23l0.6,0.2c0.6,0.2,1.4-0.1,1.6-0.8l0.1-0.2
		c0.2-0.6,0.8-1.1,1.4-1.1H12c0.6,0,1.2,0.5,1.4,1.1l0.1,0.2c0.2,0.7,1,1.1,1.6,0.8l0.6-0.2c0.7-0.2,1-1,0.8-1.7l0-0.3
		c-0.2-0.6,0.1-1.3,0.6-1.7l0.1-0.1c0.5-0.4,1.2-0.4,1.7,0l0.2,0.1c0.6,0.4,1.3,0.3,1.7-0.3l0.4-0.6c0.4-0.6,0.3-1.4-0.3-1.8
		l-0.2-0.2c-0.5-0.4-0.7-1.1-0.5-1.7v-0.1c0.2-0.6,0.8-1.1,1.4-1.1H22c0.7,0,1.2-0.6,1.2-1.3V12H17.5z"/>
	<path class="st2" d="M22,10.4h-0.3c-0.6,0-1.2-0.5-1.4-1.1V9.2c-0.2-0.6,0-1.3,0.5-1.7L21,7.4c0.6-0.5,0.7-1.2,0.3-1.8L20.9,5
		c-0.4-0.6-1.2-0.7-1.7-0.3L19,4.8c-0.5,0.4-1.2,0.4-1.7,0l-0.1-0.1c-0.5-0.4-0.7-1.1-0.6-1.7l0.1-0.3C16.8,2,16.5,1.3,15.8,1
		l-0.6-0.2c-0.6-0.2-1.4,0.1-1.6,0.8l-0.1,0.2c-0.2,0.6-0.8,1.1-1.4,1.1H12c-0.6,0-1.2-0.5-1.4-1.1l-0.1-0.2c-0.2-0.7-1-1.1-1.6-0.8
		L8.2,1c-0.7,0.2-1,1-0.8,1.7L7.5,3c0.2,0.6-0.1,1.3-0.6,1.7H6.8c-0.5,0.4-1.2,0.4-1.7,0L4.9,4.6C4.3,4.2,3.6,4.4,3.1,5L2.7,5.5
		C2.3,6.1,2.5,6.9,3,7.4l0.2,0.2C3.7,8,3.9,8.7,3.7,9.3v0.1c-0.2,0.6-0.8,1.1-1.4,1.1H2c-0.7,0-1.2,0.6-1.2,1.3v0.6
		c0,0.6,0.6,1.3,1.2,1.3h0.3c0.6,0,1.2,0.5,1.4,1.1v0.1c0.2,0.6,0,1.3-0.5,1.7l-0.2,0c-0.6,0.5-0.7,1.2-0.3,1.8L3.1,19
		c0.4,0.6,1.2,0.7,1.7,0.3L5,19.2c0.5-0.4,1.2-0.4,1.7,0l0.1,0.1c0.5,0.4,0.7,1.1,0.6,1.7l-0.1,0.3C7.2,22,7.5,22.7,8.2,23l0.6,0.2
		c0.6,0.2,1.4-0.1,1.6-0.8l0.1-0.2c0.2-0.6,0.8-1.1,1.4-1.1H12c0.6,0,1.2,0.5,1.4,1.1l0.1,0.2c0.2,0.7,1,1.1,1.6,0.8l0.6-0.2
		c0.7-0.2,1-1,0.8-1.7l0-0.3c-0.2-0.6,0.1-1.3,0.6-1.7l0.1-0.1c0.5-0.4,1.2-0.4,1.7,0l0.2,0.1c0.6,0.4,1.3,0.3,1.7-0.3l0.4-0.6
		c0.4-0.6,0.3-1.4-0.3-1.8l-0.2-0.2c-0.5-0.4-0.7-1.1-0.5-1.7v-0.1c0.2-0.6,0.8-1.1,1.4-1.1H22c0.7,0,1.2-0.6,1.2-1.3v-0.6
		C23.2,11.1,22.7,10.4,22,10.4z M12,17.7c-3,0-5.5-2.5-5.5-5.7S9,6.4,12,6.3c3,0,5.5,2.5,5.5,5.7S15,17.6,12,17.7z"/>
</g>
</svg>
