<?xml version="1.0" encoding="utf-8"?>
<!-- Generator: Adobe Illustrator 25.4.1, SVG Export Plug-In . SVG Version: 6.00 Build 0)  -->
<svg version="1.1" id="Layer_1" xmlns="http://www.w3.org/2000/svg" xmlns:xlink="http://www.w3.org/1999/xlink" x="0px" y="0px"
	 viewBox="0 0 12.3 24" style="enable-background:new 0 0 12.3 24;" xml:space="preserve">
<style type="text/css">
	.st0{fill:url(#SVGID_1_);}
</style>
<linearGradient id="SVGID_1_" gradientUnits="userSpaceOnUse" x1="-287" y1="7.3333" x2="-274.657" y2="7.3333" gradientTransform="matrix(1 0 0 1 287 4.6667)">
	<stop  offset="0" style="stop-color:#70B6FC"/>
	<stop  offset="1" style="stop-color:#0F7AEF"/>
</linearGradient>
<path class="st0" d="M9.4,5h2.2c0.4,0,0.7-0.3,0.7-0.8V0.8C12.3,0.3,12,0,11.6,0h-3c0,0-0.1,0-0.1,0C7.9,0,6,0.1,4.4,1.5
	C2.8,3.1,3,4.9,3,5.4v2.4H0.7C0.3,7.8,0,8.2,0,8.6v3.8c0,0.4,0.3,0.8,0.7,0.8h2.1v10.1c0,0.4,0.3,0.8,0.7,0.8h4.3
	c0.4,0,0.7-0.3,0.7-0.8V13.2h2.5c0.4,0,0.7-0.3,0.7-0.7l0.4-3.9c0-0.2,0-0.4-0.2-0.6c-0.1-0.2-0.3-0.2-0.6-0.2h-3v-2
	C8.6,5.2,9,5,9.4,5z"/>
</svg>
