<?xml version="1.0" encoding="utf-8"?>
<!-- Generator: Adobe Illustrator 25.4.1, SVG Export Plug-In . SVG Version: 6.00 Build 0)  -->
<svg version="1.1" id="Layer_1" xmlns="http://www.w3.org/2000/svg" xmlns:xlink="http://www.w3.org/1999/xlink" x="0px" y="0px"
	 viewBox="0 0 24 24" style="enable-background:new 0 0 24 24;" xml:space="preserve">
<style type="text/css">
	.st0{fill:url(#SVGID_1_);}
</style>
<linearGradient id="SVGID_1_" gradientUnits="userSpaceOnUse" x1="0" y1="86" x2="24" y2="86" gradientTransform="matrix(1 0 0 1 0 -74)">
	<stop  offset="0" style="stop-color:#2E94BC"/>
	<stop  offset="1" style="stop-color:#0970B1"/>
</linearGradient>
<path class="st0" d="M22.1,0h-20C1,0,0,0.8,0,1.9V22c0,1,1,2,2.1,2h20c1.1,0,1.9-1,1.9-2.1v-20C24,0.8,23.2,0,22.1,0z M7.4,20H4V9.3
	h3.4V20z M5.8,7.7L5.8,7.7C4.7,7.7,4,6.9,4,5.8C4,4.8,4.7,4,5.9,4s1.8,0.8,1.8,1.8C7.7,6.9,7,7.7,5.8,7.7z M20,20h-3.4v-5.8
	c0-1.4-0.5-2.4-1.7-2.4c-0.9,0-1.5,0.6-1.8,1.3C13,13.3,13,13.6,13,13.9V20H9.5V9.3h3.4v1.5c0.5-0.7,1.3-1.7,3.1-1.7
	c2.3,0,4,1.5,4,4.7V20z"/>
</svg>
