<?xml version="1.0" encoding="utf-8"?>
<!-- Generator: Adobe Illustrator 25.4.1, SVG Export Plug-In . SVG Version: 6.00 Build 0)  -->
<svg version="1.1" id="Layer_1" xmlns="http://www.w3.org/2000/svg" xmlns:xlink="http://www.w3.org/1999/xlink" x="0px"
     y="0px"
     viewBox="0 0 24 24" style="enable-background:new 0 0 24 24;" xml:space="preserve">
<style type="text/css">
	.st0{stroke:#000000;stroke-width:1.5;stroke-miterlimit:10;}
</style>
    <path
            d="M21,9.8c-0.1-0.2-0.3-0.4-0.5-0.4L15,9c-0.2,0-0.4-0.2-0.5-0.4l-2-5.2C12.4,3.2,12.2,3,12,3
	c-0.2,0-0.4,0.2-0.5,0.4l-2,5.2C9.4,8.8,9.2,9,9,9L3.5,9.4C3.3,9.4,3.1,9.6,3,9.8c-0.1,0.2,0,0.5,0.2,0.6l4.1,3.7
	c0.2,0.2,0.2,0.4,0.2,0.6l-1.3,5.6c-0.1,0.2,0,0.5,0.2,0.6c0.2,0.1,0.5,0.1,0.7,0l4.5-2.9c0.1,0,0.2-0.1,0.3-0.1
	c0.1,0,0.2,0,0.3,0.1l4.5,2.9c0.2,0.1,0.5,0.1,0.7,0c0.2-0.1,0.3-0.4,0.2-0.6l-1.3-5.6c0-0.2,0-0.4,0.2-0.6l4.1-3.7
	C21,10.3,21.1,10,21,9.8z"
    />
</svg>
