<?xml version="1.0" encoding="utf-8"?>
<!-- Generator: Adobe Illustrator 25.4.1, SVG Export Plug-In . SVG Version: 6.00 Build 0)  -->
<svg version="1.1" id="Layer_1" xmlns="http://www.w3.org/2000/svg" xmlns:xlink="http://www.w3.org/1999/xlink" x="0px" y="0px"
	 viewBox="0 0 26.1 24" style="enable-background:new 0 0 26.1 24;" xml:space="preserve">
<style type="text/css">
	.st0{fill:url(#SVGID_1_);}
</style>
<linearGradient id="SVGID_1_" gradientUnits="userSpaceOnUse" x1="-287" y1="-649.351" x2="-260.9" y2="-649.351" gradientTransform="matrix(1 0 0 -1 287 -637.3333)">
	<stop  offset="0" style="stop-color:#40E9FF"/>
	<stop  offset="1" style="stop-color:#00C5E5"/>
</linearGradient>
<path class="st0" d="M23.4,7c0,0.2,0,0.4,0,0.7C23.4,14.3,18,22,8.2,22l0,0c-2.9,0-5.8-0.8-8.2-2.3c0.4,0,0.8,0.1,1.3,0.1
	c2.4,0,4.8-0.8,6.6-2.2c-2.3,0-4.3-1.5-5-3.5c0.8,0.1,1.6,0.1,2.4-0.1C2.8,13.6,1,11.5,1,9.1c0,0,0,0,0-0.1c0.7,0.4,1.6,0.6,2.4,0.6
	c-2.3-1.4-3-4.4-1.6-6.7c2.7,3.2,6.7,5.1,11,5.3c-0.4-1.8,0.2-3.6,1.5-4.8c2.2-1.9,5.5-1.8,7.6,0.2c1.2-0.2,2.3-0.6,3.4-1.2
	C25,3.5,24.1,4.5,23,5.2c1.1-0.1,2.1-0.4,3.1-0.8C25.4,5.4,24.5,6.3,23.4,7z"/>
</svg>
