<?xml version="1.0" encoding="utf-8"?>
<!-- Generator: Adobe Illustrator 25.4.1, SVG Export Plug-In . SVG Version: 6.00 Build 0)  -->
<svg version="1.1" id="Layer_1" xmlns="http://www.w3.org/2000/svg" xmlns:xlink="http://www.w3.org/1999/xlink" x="0px" y="0px"
	 viewBox="0 0 26.7 24" style="enable-background:new 0 0 26.7 24;" xml:space="preserve">
<style type="text/css">
	.st0{fill:url(#SVGID_1_);}
</style>
<g>
	
		<linearGradient id="SVGID_1_" gradientUnits="userSpaceOnUse" x1="0" y1="86" x2="26.6525" y2="86" gradientTransform="matrix(1 0 0 1 0 -74)">
		<stop  offset="0" style="stop-color:#FF5F5F"/>
		<stop  offset="1" style="stop-color:#D32929"/>
	</linearGradient>
	<path class="st0" d="M26.2,5.7c-0.3-1.4-1.5-2.5-2.9-2.6c-3.3-0.4-6.7-0.4-10-0.4s-6.7,0-10,0.4C1.9,3.2,0.8,4.3,0.5,5.7
		C0,7.7,0,9.9,0,12s0,4.3,0.5,6.3c0.3,1.5,1.5,2.5,2.9,2.6c3.3,0.4,6.7,0.4,10,0.4s6.7,0,10-0.4c1.4-0.2,2.6-1.2,2.9-2.6
		c0.5-2,0.5-4.3,0.5-6.3C26.7,9.9,26.7,7.7,26.2,5.7z M9.9,16.1c0-2.9,0-5.9,0-8.8c2.8,1.5,5.7,2.9,8.4,4.4
		C15.6,13.2,12.7,14.6,9.9,16.1z"/>
</g>
</svg>
