<?xml version="1.0" encoding="utf-8"?>
<!-- Generator: Adobe Illustrator 27.7.0, SVG Export Plug-In . SVG Version: 6.00 Build 0)  -->
<svg version="1.1" id="Layer_1" xmlns="http://www.w3.org/2000/svg" xmlns:xlink="http://www.w3.org/1999/xlink" x="0px" y="0px"
	 viewBox="0 0 700 700" style="enable-background:new 0 0 700 700;" xml:space="preserve">
<style type="text/css">
	.st0{display:none;enable-background:new    ;}
	.st1{font-family:'ArialMT';}
	.st2{font-size:203px;}
	.st3{display:none;}
	.st4{display:none;opacity:0.3;}
	.st5{display:inline;}
	.st6{fill:none;stroke:#000000;stroke-width:12;stroke-linejoin:round;stroke-miterlimit:10;}
	.st7{fill:none;stroke:#000000;stroke-width:12;stroke-linecap:round;stroke-linejoin:round;stroke-miterlimit:10;}
</style>
<g id="Layer_1_00000026130305786247633250000012563479247132875169_">
	<text transform="matrix(1 0 0 1 -108.8249 717.3271)" class="st0 st1 st2">Little Brother</text>
	<rect x="-77" y="20.3" class="st3" width="854" height="703.4"/>
	<g class="st4">
		<g class="st5">
			<path d="M229.6,249.3c-0.2-2.9-0.4-6-0.4-9c0-30.8,13.1-64.9,34.9-91.3c24-28.8,54.5-44.7,85.9-44.7s61.9,15.9,85.8,44.8
				c21.9,26.4,34.9,60.5,34.9,91.3c0,2.7-0.1,5.5-0.3,8.3l-14-1c0.2-2.4,0.3-4.8,0.3-7.2c0-55.3-47.6-122-106.7-122
				c-48.3,0-106.7,54.4-106.7,122c0,2.7,0.1,5.3,0.3,7.9L229.6,249.3z"/>
		</g>
		<g class="st5">
			<path d="M503.7,301.9H196.3v-60.2h307.4V301.9L503.7,301.9z M210.3,287.9h279.4v-32.2H210.3V287.9z"/>
		</g>
		<g class="st5">
			<path d="M531.9,530.4H168.1V287.6h363.8V530.4z M182.1,516.4h335.8V301.6H182.1V516.4z"/>
		</g>
		<g class="st5">
			<rect x="343" y="334.3" width="14" height="149.4"/>
		</g>
		<g class="st5">
			<rect x="343" y="20.3" width="14" height="47.6"/>
		</g>
		<g class="st5">
			<rect x="403.2" y="334.3" width="14" height="149.4"/>
		</g>
		<g class="st5">
			<rect x="463.3" y="334.3" width="14" height="149.4"/>
		</g>
		<g class="st5">
			<rect x="282.8" y="334.3" width="14" height="149.4"/>
		</g>
		<g class="st5">
			<rect x="222.6" y="334.3" width="14" height="149.4"/>
		</g>
		<g class="st5">
			<polygon points="387.6,116.9 373.6,116.9 373.6,74.9 326.4,74.9 326.4,116.9 312.4,116.9 312.4,60.9 387.6,60.9 			"/>
		</g>
	</g>
</g>
<g id="Layer_2_00000070085925639427659470000001814563423902073258_">
	<path class="st6" d="M236.6,248.9c0,0-4.5-137.9,113.4-137.9s113.4,137.9,113.4,137.9"/>
	<path class="st6" d="M206.6,293.1L206.6,293.1c0-24.4,19.8-44.2,44.2-44.2h198.4c24.4,0,44.2,19.8,44.2,44.2l0,0"/>
	<path class="st6" d="M332.9,111.7V43.1c0-9.4,7.6-17.1,17.1-17.1l0,0c9.4,0,17.1,7.6,17.1,17.1v68.6"/>
	<path class="st6" d="M523.8,528.5v-216c0-10.7-8.7-19.5-19.5-19.5H195.6c-10.7,0-19.5,8.7-19.5,19.5v216"/>
	<line class="st7" x1="350" y1="339.8" x2="350" y2="413.5"/>
	<line class="st7" x1="289.8" y1="339.8" x2="289.8" y2="436.1"/>
	<line class="st7" x1="229.6" y1="339.8" x2="229.6" y2="458.7"/>
	<line class="st7" x1="410.2" y1="339.8" x2="410.2" y2="436.1"/>
	<line class="st7" x1="470.7" y1="339.8" x2="470.7" y2="458.7"/>
	<line class="st7" x1="350" y1="560.9" x2="350" y2="625.6"/>
	<line class="st7" x1="326" y1="518" x2="373.9" y2="518"/>
	<line class="st7" x1="289.8" y1="560.9" x2="289.8" y2="625.6"/>
	<line class="st7" x1="229.6" y1="579.9" x2="229.6" y2="625.6"/>
	<line class="st7" x1="176.1" y1="597.8" x2="176.1" y2="625.6"/>
	<line class="st7" x1="122.6" y1="597.8" x2="122.6" y2="625.6"/>
	<line class="st7" x1="410.2" y1="560.9" x2="410.2" y2="625.6"/>
	<line class="st7" x1="470.7" y1="579.9" x2="470.7" y2="625.6"/>
	<polygon class="st6" points="523.8,528.5 680,528.5 680,674 25,674 25,528.5 176.1,528.5 350,463.5 	"/>
	<line class="st7" x1="176.1" y1="483.7" x2="25" y2="528.5"/>
	<line class="st7" x1="523.8" y1="483.7" x2="680" y2="528.5"/>
	<line class="st7" x1="524.2" y1="597.8" x2="524.2" y2="625.6"/>
	<line class="st7" x1="577.7" y1="597.8" x2="577.7" y2="625.6"/>
</g>
</svg>
